<svg width="196" height="196" viewBox="0 0 196 196" fill="none" xmlns="http://www.w3.org/2000/svg">
<path d="M0.747314 0.397278H4.73181V4.38178H0.747314V0.397278Z" fill="white"/>
<path d="M4.73181 0.397278H8.71631V4.38178H4.73181V0.397278Z" fill="white"/>
<path d="M8.71631 0.397278H12.7008V4.38178H8.71631V0.397278Z" fill="white"/>
<path d="M12.7008 0.397278H16.6853V4.38178H12.7008V0.397278Z" fill="white"/>
<path d="M16.6853 0.397278H20.6698V4.38178H16.6853V0.397278Z" fill="white"/>
<path d="M20.6698 0.397278H24.6543V4.38178H20.6698V0.397278Z" fill="white"/>
<path d="M24.6543 0.397278H28.6388V4.38178H24.6543V0.397278Z" fill="white"/>
<path d="M36.6078 0.397278H40.5923V4.38178H36.6078V0.397278Z" fill="white"/>
<path d="M44.5768 0.397278H48.5613V4.38178H44.5768V0.397278Z" fill="white"/>
<path d="M48.5613 0.397278H52.5458V4.38178H48.5613V0.397278Z" fill="white"/>
<path d="M52.5458 0.397278H56.5303V4.38178H52.5458V0.397278Z" fill="white"/>
<path d="M56.5303 0.397278H60.5148V4.38178H56.5303V0.397278Z" fill="white"/>
<path d="M60.5148 0.397278H64.4993V4.38178H60.5148V0.397278Z" fill="white"/>
<path d="M88.4063 0.397278H92.3908V4.38178H88.4063V0.397278Z" fill="white"/>
<path d="M96.3753 0.397278H100.36V4.38178H96.3753V0.397278Z" fill="white"/>
<path d="M100.36 0.397278H104.344V4.38178H100.36V0.397278Z" fill="white"/>
<path d="M104.344 0.397278H108.329V4.38178H104.344V0.397278Z" fill="white"/>
<path d="M108.329 0.397278H112.313V4.38178H108.329V0.397278Z" fill="white"/>
<path d="M116.298 0.397278H120.282V4.38178H116.298V0.397278Z" fill="white"/>
<path d="M120.282 0.397278H124.267V4.38178H120.282V0.397278Z" fill="white"/>
<path d="M124.267 0.397278H128.251V4.38178H124.267V0.397278Z" fill="white"/>
<path d="M128.251 0.397278H132.236V4.38178H128.251V0.397278Z" fill="white"/>
<path d="M136.22 0.397278H140.205V4.38178H136.22V0.397278Z" fill="white"/>
<path d="M144.189 0.397278H148.174V4.38178H144.189V0.397278Z" fill="white"/>
<path d="M160.127 0.397278H164.112V4.38178H160.127V0.397278Z" fill="white"/>
<path d="M168.096 0.397278H172.081V4.38178H168.096V0.397278Z" fill="white"/>
<path d="M172.081 0.397278H176.065V4.38178H172.081V0.397278Z" fill="white"/>
<path d="M176.065 0.397278H180.05V4.38178H176.065V0.397278Z" fill="white"/>
<path d="M180.05 0.397278H184.034V4.38178H180.05V0.397278Z" fill="white"/>
<path d="M184.034 0.397278H188.019V4.38178H184.034V0.397278Z" fill="white"/>
<path d="M188.019 0.397278H192.003V4.38178H188.019V0.397278Z" fill="white"/>
<path d="M192.003 0.397278H195.988V4.38178H192.003V0.397278Z" fill="white"/>
<path d="M0.747314 4.38178H4.73181V8.36628H0.747314V4.38178Z" fill="white"/>
<path d="M24.6543 4.38178H28.6388V8.36628H24.6543V4.38178Z" fill="white"/>
<path d="M32.6233 4.38178H36.6078V8.36628H32.6233V4.38178Z" fill="white"/>
<path d="M36.6078 4.38178H40.5923V8.36628H36.6078V4.38178Z" fill="white"/>
<path d="M60.5148 4.38178H64.4993V8.36628H60.5148V4.38178Z" fill="white"/>
<path d="M64.4993 4.38178H68.4838V8.36628H64.4993V4.38178Z" fill="white"/>
<path d="M68.4838 4.38178H72.4683V8.36628H68.4838V4.38178Z" fill="white"/>
<path d="M72.4683 4.38178H76.4528V8.36628H72.4683V4.38178Z" fill="white"/>
<path d="M76.4528 4.38178H80.4373V8.36628H76.4528V4.38178Z" fill="white"/>
<path d="M84.4218 4.38178H88.4063V8.36628H84.4218V4.38178Z" fill="white"/>
<path d="M88.4063 4.38178H92.3908V8.36628H88.4063V4.38178Z" fill="white"/>
<path d="M100.36 4.38178H104.344V8.36628H100.36V4.38178Z" fill="white"/>
<path d="M104.344 4.38178H108.329V8.36628H104.344V4.38178Z" fill="white"/>
<path d="M112.313 4.38178H116.298V8.36628H112.313V4.38178Z" fill="white"/>
<path d="M116.298 4.38178H120.282V8.36628H116.298V4.38178Z" fill="white"/>
<path d="M128.251 4.38178H132.236V8.36628H128.251V4.38178Z" fill="white"/>
<path d="M132.236 4.38178H136.22V8.36628H132.236V4.38178Z" fill="white"/>
<path d="M136.22 4.38178H140.205V8.36628H136.22V4.38178Z" fill="white"/>
<path d="M148.174 4.38178H152.158V8.36628H148.174V4.38178Z" fill="white"/>
<path d="M152.158 4.38178H156.143V8.36628H152.158V4.38178Z" fill="white"/>
<path d="M156.143 4.38178H160.127V8.36628H156.143V4.38178Z" fill="white"/>
<path d="M160.127 4.38178H164.112V8.36628H160.127V4.38178Z" fill="white"/>
<path d="M168.096 4.38178H172.081V8.36628H168.096V4.38178Z" fill="white"/>
<path d="M192.003 4.38178H195.988V8.36628H192.003V4.38178Z" fill="white"/>
<path d="M0.747314 8.36628H4.73181V12.3508H0.747314V8.36628Z" fill="white"/>
<path d="M8.71631 8.36628H12.7008V12.3508H8.71631V8.36628Z" fill="white"/>
<path d="M12.7008 8.36628H16.6853V12.3508H12.7008V8.36628Z" fill="white"/>
<path d="M16.6853 8.36628H20.6698V12.3508H16.6853V8.36628Z" fill="white"/>
<path d="M24.6543 8.36628H28.6388V12.3508H24.6543V8.36628Z" fill="white"/>
<path d="M32.6233 8.36628H36.6078V12.3508H32.6233V8.36628Z" fill="white"/>
<path d="M36.6078 8.36628H40.5923V12.3508H36.6078V8.36628Z" fill="white"/>
<path d="M40.5923 8.36628H44.5768V12.3508H40.5923V8.36628Z" fill="white"/>
<path d="M44.5768 8.36628H48.5613V12.3508H44.5768V8.36628Z" fill="white"/>
<path d="M56.5303 8.36628H60.5148V12.3508H56.5303V8.36628Z" fill="white"/>
<path d="M60.5148 8.36628H64.4993V12.3508H60.5148V8.36628Z" fill="white"/>
<path d="M64.4993 8.36628H68.4838V12.3508H64.4993V8.36628Z" fill="white"/>
<path d="M68.4838 8.36628H72.4683V12.3508H68.4838V8.36628Z" fill="white"/>
<path d="M92.3908 8.36628H96.3753V12.3508H92.3908V8.36628Z" fill="white"/>
<path d="M100.36 8.36628H104.344V12.3508H100.36V8.36628Z" fill="white"/>
<path d="M108.329 8.36628H112.313V12.3508H108.329V8.36628Z" fill="white"/>
<path d="M112.313 8.36628H116.298V12.3508H112.313V8.36628Z" fill="white"/>
<path d="M116.298 8.36628H120.282V12.3508H116.298V8.36628Z" fill="white"/>
<path d="M136.22 8.36628H140.205V12.3508H136.22V8.36628Z" fill="white"/>
<path d="M148.174 8.36628H152.158V12.3508H148.174V8.36628Z" fill="white"/>
<path d="M156.143 8.36628H160.127V12.3508H156.143V8.36628Z" fill="white"/>
<path d="M160.127 8.36628H164.112V12.3508H160.127V8.36628Z" fill="white"/>
<path d="M168.096 8.36628H172.081V12.3508H168.096V8.36628Z" fill="white"/>
<path d="M176.065 8.36628H180.05V12.3508H176.065V8.36628Z" fill="white"/>
<path d="M180.05 8.36628H184.034V12.3508H180.05V8.36628Z" fill="white"/>
<path d="M184.034 8.36628H188.019V12.3508H184.034V8.36628Z" fill="white"/>
<path d="M192.003 8.36628H195.988V12.3508H192.003V8.36628Z" fill="white"/>
<path d="M0.747314 12.3508H4.73181V16.3353H0.747314V12.3508Z" fill="white"/>
<path d="M8.71631 12.3508H12.7008V16.3353H8.71631V12.3508Z" fill="white"/>
<path d="M12.7008 12.3508H16.6853V16.3353H12.7008V12.3508Z" fill="white"/>
<path d="M16.6853 12.3508H20.6698V16.3353H16.6853V12.3508Z" fill="white"/>
<path d="M24.6543 12.3508H28.6388V16.3353H24.6543V12.3508Z" fill="white"/>
<path d="M32.6233 12.3508H36.6078V16.3353H32.6233V12.3508Z" fill="white"/>
<path d="M36.6078 12.3508H40.5923V16.3353H36.6078V12.3508Z" fill="white"/>
<path d="M48.5613 12.3508H52.5458V16.3353H48.5613V12.3508Z" fill="white"/>
<path d="M56.5303 12.3508H60.5148V16.3353H56.5303V12.3508Z" fill="white"/>
<path d="M64.4993 12.3508H68.4838V16.3353H64.4993V12.3508Z" fill="white"/>
<path d="M84.4218 12.3508H88.4063V16.3353H84.4218V12.3508Z" fill="white"/>
<path d="M96.3753 12.3508H100.36V16.3353H96.3753V12.3508Z" fill="white"/>
<path d="M104.344 12.3508H108.329V16.3353H104.344V12.3508Z" fill="white"/>
<path d="M116.298 12.3508H120.282V16.3353H116.298V12.3508Z" fill="white"/>
<path d="M120.282 12.3508H124.267V16.3353H120.282V12.3508Z" fill="white"/>
<path d="M124.267 12.3508H128.251V16.3353H124.267V12.3508Z" fill="white"/>
<path d="M132.236 12.3508H136.22V16.3353H132.236V12.3508Z" fill="white"/>
<path d="M140.205 12.3508H144.189V16.3353H140.205V12.3508Z" fill="white"/>
<path d="M148.174 12.3508H152.158V16.3353H148.174V12.3508Z" fill="white"/>
<path d="M156.143 12.3508H160.127V16.3353H156.143V12.3508Z" fill="white"/>
<path d="M168.096 12.3508H172.081V16.3353H168.096V12.3508Z" fill="white"/>
<path d="M176.065 12.3508H180.05V16.3353H176.065V12.3508Z" fill="white"/>
<path d="M180.05 12.3508H184.034V16.3353H180.05V12.3508Z" fill="white"/>
<path d="M184.034 12.3508H188.019V16.3353H184.034V12.3508Z" fill="white"/>
<path d="M192.003 12.3508H195.988V16.3353H192.003V12.3508Z" fill="white"/>
<path d="M0.747314 16.3353H4.73181V20.3198H0.747314V16.3353Z" fill="white"/>
<path d="M8.71631 16.3353H12.7008V20.3198H8.71631V16.3353Z" fill="white"/>
<path d="M12.7008 16.3353H16.6853V20.3198H12.7008V16.3353Z" fill="white"/>
<path d="M16.6853 16.3353H20.6698V20.3198H16.6853V16.3353Z" fill="white"/>
<path d="M24.6543 16.3353H28.6388V20.3198H24.6543V16.3353Z" fill="white"/>
<path d="M32.6233 16.3353H36.6078V20.3198H32.6233V16.3353Z" fill="white"/>
<path d="M48.5613 16.3353H52.5458V20.3198H48.5613V16.3353Z" fill="white"/>
<path d="M56.5303 16.3353H60.5148V20.3198H56.5303V16.3353Z" fill="white"/>
<path d="M68.4838 16.3353H72.4683V20.3198H68.4838V16.3353Z" fill="white"/>
<path d="M76.4528 16.3353H80.4373V20.3198H76.4528V16.3353Z" fill="white"/>
<path d="M80.4373 16.3353H84.4218V20.3198H80.4373V16.3353Z" fill="white"/>
<path d="M88.4063 16.3353H92.3908V20.3198H88.4063V16.3353Z" fill="white"/>
<path d="M92.3908 16.3353H96.3753V20.3198H92.3908V16.3353Z" fill="white"/>
<path d="M96.3753 16.3353H100.36V20.3198H96.3753V16.3353Z" fill="white"/>
<path d="M100.36 16.3353H104.344V20.3198H100.36V16.3353Z" fill="white"/>
<path d="M104.344 16.3353H108.329V20.3198H104.344V16.3353Z" fill="white"/>
<path d="M108.329 16.3353H112.313V20.3198H108.329V16.3353Z" fill="white"/>
<path d="M128.251 16.3353H132.236V20.3198H128.251V16.3353Z" fill="white"/>
<path d="M132.236 16.3353H136.22V20.3198H132.236V16.3353Z" fill="white"/>
<path d="M136.22 16.3353H140.205V20.3198H136.22V16.3353Z" fill="white"/>
<path d="M140.205 16.3353H144.189V20.3198H140.205V16.3353Z" fill="white"/>
<path d="M144.189 16.3353H148.174V20.3198H144.189V16.3353Z" fill="white"/>
<path d="M168.096 16.3353H172.081V20.3198H168.096V16.3353Z" fill="white"/>
<path d="M176.065 16.3353H180.05V20.3198H176.065V16.3353Z" fill="white"/>
<path d="M180.05 16.3353H184.034V20.3198H180.05V16.3353Z" fill="white"/>
<path d="M184.034 16.3353H188.019V20.3198H184.034V16.3353Z" fill="white"/>
<path d="M192.003 16.3353H195.988V20.3198H192.003V16.3353Z" fill="white"/>
<path d="M0.747314 20.3198H4.73181V24.3043H0.747314V20.3198Z" fill="white"/>
<path d="M24.6543 20.3198H28.6388V24.3043H24.6543V20.3198Z" fill="white"/>
<path d="M32.6233 20.3198H36.6078V24.3043H32.6233V20.3198Z" fill="white"/>
<path d="M36.6078 20.3198H40.5923V24.3043H36.6078V20.3198Z" fill="white"/>
<path d="M60.5148 20.3198H64.4993V24.3043H60.5148V20.3198Z" fill="white"/>
<path d="M64.4993 20.3198H68.4838V24.3043H64.4993V20.3198Z" fill="white"/>
<path d="M72.4683 20.3198H76.4528V24.3043H72.4683V20.3198Z" fill="white"/>
<path d="M76.4528 20.3198H80.4373V24.3043H76.4528V20.3198Z" fill="white"/>
<path d="M80.4373 20.3198H84.4218V24.3043H80.4373V20.3198Z" fill="white"/>
<path d="M84.4218 20.3198H88.4063V24.3043H84.4218V20.3198Z" fill="white"/>
<path d="M88.4063 20.3198H92.3908V24.3043H88.4063V20.3198Z" fill="white"/>
<path d="M104.344 20.3198H108.329V24.3043H104.344V20.3198Z" fill="white"/>
<path d="M108.329 20.3198H112.313V24.3043H108.329V20.3198Z" fill="white"/>
<path d="M124.267 20.3198H128.251V24.3043H124.267V20.3198Z" fill="white"/>
<path d="M136.22 20.3198H140.205V24.3043H136.22V20.3198Z" fill="white"/>
<path d="M148.174 20.3198H152.158V24.3043H148.174V20.3198Z" fill="white"/>
<path d="M152.158 20.3198H156.143V24.3043H152.158V20.3198Z" fill="white"/>
<path d="M168.096 20.3198H172.081V24.3043H168.096V20.3198Z" fill="white"/>
<path d="M192.003 20.3198H195.988V24.3043H192.003V20.3198Z" fill="white"/>
<path d="M0.747314 24.3043H4.73181V28.2888H0.747314V24.3043Z" fill="white"/>
<path d="M4.73181 24.3043H8.71631V28.2888H4.73181V24.3043Z" fill="white"/>
<path d="M8.71631 24.3043H12.7008V28.2888H8.71631V24.3043Z" fill="white"/>
<path d="M12.7008 24.3043H16.6853V28.2888H12.7008V24.3043Z" fill="white"/>
<path d="M16.6853 24.3043H20.6698V28.2888H16.6853V24.3043Z" fill="white"/>
<path d="M20.6698 24.3043H24.6543V28.2888H20.6698V24.3043Z" fill="white"/>
<path d="M24.6543 24.3043H28.6388V28.2888H24.6543V24.3043Z" fill="white"/>
<path d="M32.6233 24.3043H36.6078V28.2888H32.6233V24.3043Z" fill="white"/>
<path d="M40.5923 24.3043H44.5768V28.2888H40.5923V24.3043Z" fill="white"/>
<path d="M48.5613 24.3043H52.5458V28.2888H48.5613V24.3043Z" fill="white"/>
<path d="M56.5303 24.3043H60.5148V28.2888H56.5303V24.3043Z" fill="white"/>
<path d="M64.4993 24.3043H68.4838V28.2888H64.4993V24.3043Z" fill="white"/>
<path d="M72.4683 24.3043H76.4528V28.2888H72.4683V24.3043Z" fill="white"/>
<path d="M80.4373 24.3043H84.4218V28.2888H80.4373V24.3043Z" fill="white"/>
<path d="M88.4063 24.3043H92.3908V28.2888H88.4063V24.3043Z" fill="white"/>
<path d="M96.3753 24.3043H100.36V28.2888H96.3753V24.3043Z" fill="white"/>
<path d="M104.344 24.3043H108.329V28.2888H104.344V24.3043Z" fill="white"/>
<path d="M112.313 24.3043H116.298V28.2888H112.313V24.3043Z" fill="white"/>
<path d="M120.282 24.3043H124.267V28.2888H120.282V24.3043Z" fill="white"/>
<path d="M128.251 24.3043H132.236V28.2888H128.251V24.3043Z" fill="white"/>
<path d="M136.22 24.3043H140.205V28.2888H136.22V24.3043Z" fill="white"/>
<path d="M144.189 24.3043H148.174V28.2888H144.189V24.3043Z" fill="white"/>
<path d="M152.158 24.3043H156.143V28.2888H152.158V24.3043Z" fill="white"/>
<path d="M160.127 24.3043H164.112V28.2888H160.127V24.3043Z" fill="white"/>
<path d="M168.096 24.3043H172.081V28.2888H168.096V24.3043Z" fill="white"/>
<path d="M172.081 24.3043H176.065V28.2888H172.081V24.3043Z" fill="white"/>
<path d="M176.065 24.3043H180.05V28.2888H176.065V24.3043Z" fill="white"/>
<path d="M180.05 24.3043H184.034V28.2888H180.05V24.3043Z" fill="white"/>
<path d="M184.034 24.3043H188.019V28.2888H184.034V24.3043Z" fill="white"/>
<path d="M188.019 24.3043H192.003V28.2888H188.019V24.3043Z" fill="white"/>
<path d="M192.003 24.3043H195.988V28.2888H192.003V24.3043Z" fill="white"/>
<path d="M36.6078 28.2888H40.5923V32.2733H36.6078V28.2888Z" fill="white"/>
<path d="M40.5923 28.2888H44.5768V32.2733H40.5923V28.2888Z" fill="white"/>
<path d="M44.5768 28.2888H48.5613V32.2733H44.5768V28.2888Z" fill="white"/>
<path d="M56.5303 28.2888H60.5148V32.2733H56.5303V28.2888Z" fill="white"/>
<path d="M68.4838 28.2888H72.4683V32.2733H68.4838V28.2888Z" fill="white"/>
<path d="M76.4528 28.2888H80.4373V32.2733H76.4528V28.2888Z" fill="white"/>
<path d="M84.4218 28.2888H88.4063V32.2733H84.4218V28.2888Z" fill="white"/>
<path d="M88.4063 28.2888H92.3908V32.2733H88.4063V28.2888Z" fill="white"/>
<path d="M104.344 28.2888H108.329V32.2733H104.344V28.2888Z" fill="white"/>
<path d="M108.329 28.2888H112.313V32.2733H108.329V28.2888Z" fill="white"/>
<path d="M128.251 28.2888H132.236V32.2733H128.251V28.2888Z" fill="white"/>
<path d="M140.205 28.2888H144.189V32.2733H140.205V28.2888Z" fill="white"/>
<path d="M8.71631 32.2733H12.7008V36.2578H8.71631V32.2733Z" fill="white"/>
<path d="M20.6698 32.2733H24.6543V36.2578H20.6698V32.2733Z" fill="white"/>
<path d="M24.6543 32.2733H28.6388V36.2578H24.6543V32.2733Z" fill="white"/>
<path d="M28.6388 32.2733H32.6233V36.2578H28.6388V32.2733Z" fill="white"/>
<path d="M32.6233 32.2733H36.6078V36.2578H32.6233V32.2733Z" fill="white"/>
<path d="M36.6078 32.2733H40.5923V36.2578H36.6078V32.2733Z" fill="white"/>
<path d="M40.5923 32.2733H44.5768V36.2578H40.5923V32.2733Z" fill="white"/>
<path d="M44.5768 32.2733H48.5613V36.2578H44.5768V32.2733Z" fill="white"/>
<path d="M48.5613 32.2733H52.5458V36.2578H48.5613V32.2733Z" fill="white"/>
<path d="M56.5303 32.2733H60.5148V36.2578H56.5303V32.2733Z" fill="white"/>
<path d="M64.4993 32.2733H68.4838V36.2578H64.4993V32.2733Z" fill="white"/>
<path d="M72.4683 32.2733H76.4528V36.2578H72.4683V32.2733Z" fill="white"/>
<path d="M80.4373 32.2733H84.4218V36.2578H80.4373V32.2733Z" fill="white"/>
<path d="M84.4218 32.2733H88.4063V36.2578H84.4218V32.2733Z" fill="white"/>
<path d="M88.4063 32.2733H92.3908V36.2578H88.4063V32.2733Z" fill="white"/>
<path d="M92.3908 32.2733H96.3753V36.2578H92.3908V32.2733Z" fill="white"/>
<path d="M96.3753 32.2733H100.36V36.2578H96.3753V32.2733Z" fill="white"/>
<path d="M100.36 32.2733H104.344V36.2578H100.36V32.2733Z" fill="white"/>
<path d="M104.344 32.2733H108.329V36.2578H104.344V32.2733Z" fill="white"/>
<path d="M108.329 32.2733H112.313V36.2578H108.329V32.2733Z" fill="white"/>
<path d="M120.282 32.2733H124.267V36.2578H120.282V32.2733Z" fill="white"/>
<path d="M124.267 32.2733H128.251V36.2578H124.267V32.2733Z" fill="white"/>
<path d="M128.251 32.2733H132.236V36.2578H128.251V32.2733Z" fill="white"/>
<path d="M148.174 32.2733H152.158V36.2578H148.174V32.2733Z" fill="white"/>
<path d="M152.158 32.2733H156.143V36.2578H152.158V32.2733Z" fill="white"/>
<path d="M156.143 32.2733H160.127V36.2578H156.143V32.2733Z" fill="white"/>
<path d="M164.112 32.2733H168.096V36.2578H164.112V32.2733Z" fill="white"/>
<path d="M172.081 32.2733H176.065V36.2578H172.081V32.2733Z" fill="white"/>
<path d="M176.065 32.2733H180.05V36.2578H176.065V32.2733Z" fill="white"/>
<path d="M180.05 32.2733H184.034V36.2578H180.05V32.2733Z" fill="white"/>
<path d="M184.034 32.2733H188.019V36.2578H184.034V32.2733Z" fill="white"/>
<path d="M188.019 32.2733H192.003V36.2578H188.019V32.2733Z" fill="white"/>
<path d="M12.7008 36.2578H16.6853V40.2423H12.7008V36.2578Z" fill="white"/>
<path d="M16.6853 36.2578H20.6698V40.2423H16.6853V36.2578Z" fill="white"/>
<path d="M28.6388 36.2578H32.6233V40.2423H28.6388V36.2578Z" fill="white"/>
<path d="M36.6078 36.2578H40.5923V40.2423H36.6078V36.2578Z" fill="white"/>
<path d="M56.5303 36.2578H60.5148V40.2423H56.5303V36.2578Z" fill="white"/>
<path d="M60.5148 36.2578H64.4993V40.2423H60.5148V36.2578Z" fill="white"/>
<path d="M68.4838 36.2578H72.4683V40.2423H68.4838V36.2578Z" fill="white"/>
<path d="M76.4528 36.2578H80.4373V40.2423H76.4528V36.2578Z" fill="white"/>
<path d="M80.4373 36.2578H84.4218V40.2423H80.4373V36.2578Z" fill="white"/>
<path d="M84.4218 36.2578H88.4063V40.2423H84.4218V36.2578Z" fill="white"/>
<path d="M92.3908 36.2578H96.3753V40.2423H92.3908V36.2578Z" fill="white"/>
<path d="M100.36 36.2578H104.344V40.2423H100.36V36.2578Z" fill="white"/>
<path d="M108.329 36.2578H112.313V40.2423H108.329V36.2578Z" fill="white"/>
<path d="M112.313 36.2578H116.298V40.2423H112.313V36.2578Z" fill="white"/>
<path d="M116.298 36.2578H120.282V40.2423H116.298V36.2578Z" fill="white"/>
<path d="M120.282 36.2578H124.267V40.2423H120.282V36.2578Z" fill="white"/>
<path d="M132.236 36.2578H136.22V40.2423H132.236V36.2578Z" fill="white"/>
<path d="M136.22 36.2578H140.205V40.2423H136.22V36.2578Z" fill="white"/>
<path d="M144.189 36.2578H148.174V40.2423H144.189V36.2578Z" fill="white"/>
<path d="M148.174 36.2578H152.158V40.2423H148.174V36.2578Z" fill="white"/>
<path d="M156.143 36.2578H160.127V40.2423H156.143V36.2578Z" fill="white"/>
<path d="M168.096 36.2578H172.081V40.2423H168.096V36.2578Z" fill="white"/>
<path d="M176.065 36.2578H180.05V40.2423H176.065V36.2578Z" fill="white"/>
<path d="M180.05 36.2578H184.034V40.2423H180.05V36.2578Z" fill="white"/>
<path d="M192.003 36.2578H195.988V40.2423H192.003V36.2578Z" fill="white"/>
<path d="M4.73181 40.2423H8.71631V44.2268H4.73181V40.2423Z" fill="white"/>
<path d="M8.71631 40.2423H12.7008V44.2268H8.71631V40.2423Z" fill="white"/>
<path d="M20.6698 40.2423H24.6543V44.2268H20.6698V40.2423Z" fill="white"/>
<path d="M24.6543 40.2423H28.6388V44.2268H24.6543V40.2423Z" fill="white"/>
<path d="M36.6078 40.2423H40.5923V44.2268H36.6078V40.2423Z" fill="white"/>
<path d="M44.5768 40.2423H48.5613V44.2268H44.5768V40.2423Z" fill="white"/>
<path d="M60.5148 40.2423H64.4993V44.2268H60.5148V40.2423Z" fill="white"/>
<path d="M76.4528 40.2423H80.4373V44.2268H76.4528V40.2423Z" fill="white"/>
<path d="M96.3753 40.2423H100.36V44.2268H96.3753V40.2423Z" fill="white"/>
<path d="M108.329 40.2423H112.313V44.2268H108.329V40.2423Z" fill="white"/>
<path d="M112.313 40.2423H116.298V44.2268H112.313V40.2423Z" fill="white"/>
<path d="M116.298 40.2423H120.282V44.2268H116.298V40.2423Z" fill="white"/>
<path d="M120.282 40.2423H124.267V44.2268H120.282V40.2423Z" fill="white"/>
<path d="M124.267 40.2423H128.251V44.2268H124.267V40.2423Z" fill="white"/>
<path d="M128.251 40.2423H132.236V44.2268H128.251V40.2423Z" fill="white"/>
<path d="M136.22 40.2423H140.205V44.2268H136.22V40.2423Z" fill="white"/>
<path d="M144.189 40.2423H148.174V44.2268H144.189V40.2423Z" fill="white"/>
<path d="M148.174 40.2423H152.158V44.2268H148.174V40.2423Z" fill="white"/>
<path d="M152.158 40.2423H156.143V44.2268H152.158V40.2423Z" fill="white"/>
<path d="M168.096 40.2423H172.081V44.2268H168.096V40.2423Z" fill="white"/>
<path d="M172.081 40.2423H176.065V44.2268H172.081V40.2423Z" fill="white"/>
<path d="M180.05 40.2423H184.034V44.2268H180.05V40.2423Z" fill="white"/>
<path d="M184.034 40.2423H188.019V44.2268H184.034V40.2423Z" fill="white"/>
<path d="M188.019 40.2423H192.003V44.2268H188.019V40.2423Z" fill="white"/>
<path d="M192.003 40.2423H195.988V44.2268H192.003V40.2423Z" fill="white"/>
<path d="M8.71631 44.2268H12.7008V48.2113H8.71631V44.2268Z" fill="white"/>
<path d="M12.7008 44.2268H16.6853V48.2113H12.7008V44.2268Z" fill="white"/>
<path d="M16.6853 44.2268H20.6698V48.2113H16.6853V44.2268Z" fill="white"/>
<path d="M28.6388 44.2268H32.6233V48.2113H28.6388V44.2268Z" fill="white"/>
<path d="M40.5923 44.2268H44.5768V48.2113H40.5923V44.2268Z" fill="white"/>
<path d="M48.5613 44.2268H52.5458V48.2113H48.5613V44.2268Z" fill="white"/>
<path d="M60.5148 44.2268H64.4993V48.2113H60.5148V44.2268Z" fill="white"/>
<path d="M64.4993 44.2268H68.4838V48.2113H64.4993V44.2268Z" fill="white"/>
<path d="M68.4838 44.2268H72.4683V48.2113H68.4838V44.2268Z" fill="white"/>
<path d="M72.4683 44.2268H76.4528V48.2113H72.4683V44.2268Z" fill="white"/>
<path d="M92.3908 44.2268H96.3753V48.2113H92.3908V44.2268Z" fill="white"/>
<path d="M96.3753 44.2268H100.36V48.2113H96.3753V44.2268Z" fill="white"/>
<path d="M100.36 44.2268H104.344V48.2113H100.36V44.2268Z" fill="white"/>
<path d="M104.344 44.2268H108.329V48.2113H104.344V44.2268Z" fill="white"/>
<path d="M108.329 44.2268H112.313V48.2113H108.329V44.2268Z" fill="white"/>
<path d="M124.267 44.2268H128.251V48.2113H124.267V44.2268Z" fill="white"/>
<path d="M132.236 44.2268H136.22V48.2113H132.236V44.2268Z" fill="white"/>
<path d="M140.205 44.2268H144.189V48.2113H140.205V44.2268Z" fill="white"/>
<path d="M148.174 44.2268H152.158V48.2113H148.174V44.2268Z" fill="white"/>
<path d="M176.065 44.2268H180.05V48.2113H176.065V44.2268Z" fill="white"/>
<path d="M0.747314 48.2113H4.73181V52.1958H0.747314V48.2113Z" fill="white"/>
<path d="M12.7008 48.2113H16.6853V52.1958H12.7008V48.2113Z" fill="white"/>
<path d="M16.6853 48.2113H20.6698V52.1958H16.6853V48.2113Z" fill="white"/>
<path d="M20.6698 48.2113H24.6543V52.1958H20.6698V48.2113Z" fill="white"/>
<path d="M24.6543 48.2113H28.6388V52.1958H24.6543V48.2113Z" fill="white"/>
<path d="M28.6388 48.2113H32.6233V52.1958H28.6388V48.2113Z" fill="white"/>
<path d="M32.6233 48.2113H36.6078V52.1958H32.6233V48.2113Z" fill="white"/>
<path d="M36.6078 48.2113H40.5923V52.1958H36.6078V48.2113Z" fill="white"/>
<path d="M44.5768 48.2113H48.5613V52.1958H44.5768V48.2113Z" fill="white"/>
<path d="M52.5458 48.2113H56.5303V52.1958H52.5458V48.2113Z" fill="white"/>
<path d="M72.4683 48.2113H76.4528V52.1958H72.4683V48.2113Z" fill="white"/>
<path d="M76.4528 48.2113H80.4373V52.1958H76.4528V48.2113Z" fill="white"/>
<path d="M88.4063 48.2113H92.3908V52.1958H88.4063V48.2113Z" fill="white"/>
<path d="M92.3908 48.2113H96.3753V52.1958H92.3908V48.2113Z" fill="white"/>
<path d="M108.329 48.2113H112.313V52.1958H108.329V48.2113Z" fill="white"/>
<path d="M112.313 48.2113H116.298V52.1958H112.313V48.2113Z" fill="white"/>
<path d="M120.282 48.2113H124.267V52.1958H120.282V48.2113Z" fill="white"/>
<path d="M128.251 48.2113H132.236V52.1958H128.251V48.2113Z" fill="white"/>
<path d="M132.236 48.2113H136.22V52.1958H132.236V48.2113Z" fill="white"/>
<path d="M140.205 48.2113H144.189V52.1958H140.205V48.2113Z" fill="white"/>
<path d="M144.189 48.2113H148.174V52.1958H144.189V48.2113Z" fill="white"/>
<path d="M156.143 48.2113H160.127V52.1958H156.143V48.2113Z" fill="white"/>
<path d="M168.096 48.2113H172.081V52.1958H168.096V48.2113Z" fill="white"/>
<path d="M176.065 48.2113H180.05V52.1958H176.065V48.2113Z" fill="white"/>
<path d="M184.034 48.2113H188.019V52.1958H184.034V48.2113Z" fill="white"/>
<path d="M188.019 48.2113H192.003V52.1958H188.019V48.2113Z" fill="white"/>
<path d="M192.003 48.2113H195.988V52.1958H192.003V48.2113Z" fill="white"/>
<path d="M8.71631 52.1958H12.7008V56.1803H8.71631V52.1958Z" fill="white"/>
<path d="M12.7008 52.1958H16.6853V56.1803H12.7008V52.1958Z" fill="white"/>
<path d="M20.6698 52.1958H24.6543V56.1803H20.6698V52.1958Z" fill="white"/>
<path d="M28.6388 52.1958H32.6233V56.1803H28.6388V52.1958Z" fill="white"/>
<path d="M32.6233 52.1958H36.6078V56.1803H32.6233V52.1958Z" fill="white"/>
<path d="M52.5458 52.1958H56.5303V56.1803H52.5458V52.1958Z" fill="white"/>
<path d="M56.5303 52.1958H60.5148V56.1803H56.5303V52.1958Z" fill="white"/>
<path d="M60.5148 52.1958H64.4993V56.1803H60.5148V52.1958Z" fill="white"/>
<path d="M64.4993 52.1958H68.4838V56.1803H64.4993V52.1958Z" fill="white"/>
<path d="M68.4838 52.1958H72.4683V56.1803H68.4838V52.1958Z" fill="white"/>
<path d="M72.4683 52.1958H76.4528V56.1803H72.4683V52.1958Z" fill="white"/>
<path d="M76.4528 52.1958H80.4373V56.1803H76.4528V52.1958Z" fill="white"/>
<path d="M88.4063 52.1958H92.3908V56.1803H88.4063V52.1958Z" fill="white"/>
<path d="M92.3908 52.1958H96.3753V56.1803H92.3908V52.1958Z" fill="white"/>
<path d="M96.3753 52.1958H100.36V56.1803H96.3753V52.1958Z" fill="white"/>
<path d="M100.36 52.1958H104.344V56.1803H100.36V52.1958Z" fill="white"/>
<path d="M104.344 52.1958H108.329V56.1803H104.344V52.1958Z" fill="white"/>
<path d="M112.313 52.1958H116.298V56.1803H112.313V52.1958Z" fill="white"/>
<path d="M116.298 52.1958H120.282V56.1803H116.298V52.1958Z" fill="white"/>
<path d="M120.282 52.1958H124.267V56.1803H120.282V52.1958Z" fill="white"/>
<path d="M132.236 52.1958H136.22V56.1803H132.236V52.1958Z" fill="white"/>
<path d="M136.22 52.1958H140.205V56.1803H136.22V52.1958Z" fill="white"/>
<path d="M144.189 52.1958H148.174V56.1803H144.189V52.1958Z" fill="white"/>
<path d="M148.174 52.1958H152.158V56.1803H148.174V52.1958Z" fill="white"/>
<path d="M168.096 52.1958H172.081V56.1803H168.096V52.1958Z" fill="white"/>
<path d="M180.05 52.1958H184.034V56.1803H180.05V52.1958Z" fill="white"/>
<path d="M188.019 52.1958H192.003V56.1803H188.019V52.1958Z" fill="white"/>
<path d="M192.003 52.1958H195.988V56.1803H192.003V52.1958Z" fill="white"/>
<path d="M0.747314 56.1803H4.73181V60.1648H0.747314V56.1803Z" fill="white"/>
<path d="M8.71631 56.1803H12.7008V60.1648H8.71631V56.1803Z" fill="white"/>
<path d="M12.7008 56.1803H16.6853V60.1648H12.7008V56.1803Z" fill="white"/>
<path d="M24.6543 56.1803H28.6388V60.1648H24.6543V56.1803Z" fill="white"/>
<path d="M28.6388 56.1803H32.6233V60.1648H28.6388V56.1803Z" fill="white"/>
<path d="M40.5923 56.1803H44.5768V60.1648H40.5923V56.1803Z" fill="white"/>
<path d="M44.5768 56.1803H48.5613V60.1648H44.5768V56.1803Z" fill="white"/>
<path d="M52.5458 56.1803H56.5303V60.1648H52.5458V56.1803Z" fill="white"/>
<path d="M56.5303 56.1803H60.5148V60.1648H56.5303V56.1803Z" fill="white"/>
<path d="M60.5148 56.1803H64.4993V60.1648H60.5148V56.1803Z" fill="white"/>
<path d="M68.4838 56.1803H72.4683V60.1648H68.4838V56.1803Z" fill="white"/>
<path d="M72.4683 56.1803H76.4528V60.1648H72.4683V56.1803Z" fill="white"/>
<path d="M80.4373 56.1803H84.4218V60.1648H80.4373V56.1803Z" fill="white"/>
<path d="M84.4218 56.1803H88.4063V60.1648H84.4218V56.1803Z" fill="white"/>
<path d="M92.3908 56.1803H96.3753V60.1648H92.3908V56.1803Z" fill="white"/>
<path d="M96.3753 56.1803H100.36V60.1648H96.3753V56.1803Z" fill="white"/>
<path d="M104.344 56.1803H108.329V60.1648H104.344V56.1803Z" fill="white"/>
<path d="M112.313 56.1803H116.298V60.1648H112.313V56.1803Z" fill="white"/>
<path d="M120.282 56.1803H124.267V60.1648H120.282V56.1803Z" fill="white"/>
<path d="M132.236 56.1803H136.22V60.1648H132.236V56.1803Z" fill="white"/>
<path d="M144.189 56.1803H148.174V60.1648H144.189V56.1803Z" fill="white"/>
<path d="M148.174 56.1803H152.158V60.1648H148.174V56.1803Z" fill="white"/>
<path d="M152.158 56.1803H156.143V60.1648H152.158V56.1803Z" fill="white"/>
<path d="M156.143 56.1803H160.127V60.1648H156.143V56.1803Z" fill="white"/>
<path d="M164.112 56.1803H168.096V60.1648H164.112V56.1803Z" fill="white"/>
<path d="M168.096 56.1803H172.081V60.1648H168.096V56.1803Z" fill="white"/>
<path d="M184.034 56.1803H188.019V60.1648H184.034V56.1803Z" fill="white"/>
<path d="M192.003 56.1803H195.988V60.1648H192.003V56.1803Z" fill="white"/>
<path d="M12.7008 60.1648H16.6853V64.1493H12.7008V60.1648Z" fill="white"/>
<path d="M28.6388 60.1648H32.6233V64.1493H28.6388V60.1648Z" fill="white"/>
<path d="M44.5768 60.1648H48.5613V64.1493H44.5768V60.1648Z" fill="white"/>
<path d="M48.5613 60.1648H52.5458V64.1493H48.5613V60.1648Z" fill="white"/>
<path d="M52.5458 60.1648H56.5303V64.1493H52.5458V60.1648Z" fill="white"/>
<path d="M64.4993 60.1648H68.4838V64.1493H64.4993V60.1648Z" fill="white"/>
<path d="M68.4838 60.1648H72.4683V64.1493H68.4838V60.1648Z" fill="white"/>
<path d="M72.4683 60.1648H76.4528V64.1493H72.4683V60.1648Z" fill="white"/>
<path d="M76.4528 60.1648H80.4373V64.1493H76.4528V60.1648Z" fill="white"/>
<path d="M80.4373 60.1648H84.4218V64.1493H80.4373V60.1648Z" fill="white"/>
<path d="M84.4218 60.1648H88.4063V64.1493H84.4218V60.1648Z" fill="white"/>
<path d="M96.3753 60.1648H100.36V64.1493H96.3753V60.1648Z" fill="white"/>
<path d="M120.282 60.1648H124.267V64.1493H120.282V60.1648Z" fill="white"/>
<path d="M128.251 60.1648H132.236V64.1493H128.251V60.1648Z" fill="white"/>
<path d="M132.236 60.1648H136.22V64.1493H132.236V60.1648Z" fill="white"/>
<path d="M148.174 60.1648H152.158V64.1493H148.174V60.1648Z" fill="white"/>
<path d="M160.127 60.1648H164.112V64.1493H160.127V60.1648Z" fill="white"/>
<path d="M164.112 60.1648H168.096V64.1493H164.112V60.1648Z" fill="white"/>
<path d="M176.065 60.1648H180.05V64.1493H176.065V60.1648Z" fill="white"/>
<path d="M180.05 60.1648H184.034V64.1493H180.05V60.1648Z" fill="white"/>
<path d="M184.034 60.1648H188.019V64.1493H184.034V60.1648Z" fill="white"/>
<path d="M188.019 60.1648H192.003V64.1493H188.019V60.1648Z" fill="white"/>
<path d="M4.73181 64.1493H8.71631V68.1338H4.73181V64.1493Z" fill="white"/>
<path d="M8.71631 64.1493H12.7008V68.1338H8.71631V64.1493Z" fill="white"/>
<path d="M24.6543 64.1493H28.6388V68.1338H24.6543V64.1493Z" fill="white"/>
<path d="M28.6388 64.1493H32.6233V68.1338H28.6388V64.1493Z" fill="white"/>
<path d="M32.6233 64.1493H36.6078V68.1338H32.6233V64.1493Z" fill="white"/>
<path d="M44.5768 64.1493H48.5613V68.1338H44.5768V64.1493Z" fill="white"/>
<path d="M52.5458 64.1493H56.5303V68.1338H52.5458V64.1493Z" fill="white"/>
<path d="M56.5303 64.1493H60.5148V68.1338H56.5303V64.1493Z" fill="white"/>
<path d="M60.5148 64.1493H64.4993V68.1338H60.5148V64.1493Z" fill="white"/>
<path d="M72.4683 64.1493H76.4528V68.1338H72.4683V64.1493Z" fill="white"/>
<path d="M76.4528 64.1493H80.4373V68.1338H76.4528V64.1493Z" fill="white"/>
<path d="M84.4218 64.1493H88.4063V68.1338H84.4218V64.1493Z" fill="white"/>
<path d="M92.3908 64.1493H96.3753V68.1338H92.3908V64.1493Z" fill="white"/>
<path d="M96.3753 64.1493H100.36V68.1338H96.3753V64.1493Z" fill="white"/>
<path d="M112.313 64.1493H116.298V68.1338H112.313V64.1493Z" fill="white"/>
<path d="M120.282 64.1493H124.267V68.1338H120.282V64.1493Z" fill="white"/>
<path d="M124.267 64.1493H128.251V68.1338H124.267V64.1493Z" fill="white"/>
<path d="M144.189 64.1493H148.174V68.1338H144.189V64.1493Z" fill="white"/>
<path d="M156.143 64.1493H160.127V68.1338H156.143V64.1493Z" fill="white"/>
<path d="M164.112 64.1493H168.096V68.1338H164.112V64.1493Z" fill="white"/>
<path d="M176.065 64.1493H180.05V68.1338H176.065V64.1493Z" fill="white"/>
<path d="M188.019 64.1493H192.003V68.1338H188.019V64.1493Z" fill="white"/>
<path d="M192.003 64.1493H195.988V68.1338H192.003V64.1493Z" fill="white"/>
<path d="M0.747314 68.1338H4.73181V72.1183H0.747314V68.1338Z" fill="white"/>
<path d="M8.71631 68.1338H12.7008V72.1183H8.71631V68.1338Z" fill="white"/>
<path d="M12.7008 68.1338H16.6853V72.1183H12.7008V68.1338Z" fill="white"/>
<path d="M16.6853 68.1338H20.6698V72.1183H16.6853V68.1338Z" fill="white"/>
<path d="M20.6698 68.1338H24.6543V72.1183H20.6698V68.1338Z" fill="white"/>
<path d="M28.6388 68.1338H32.6233V72.1183H28.6388V68.1338Z" fill="white"/>
<path d="M44.5768 68.1338H48.5613V72.1183H44.5768V68.1338Z" fill="white"/>
<path d="M52.5458 68.1338H56.5303V72.1183H52.5458V68.1338Z" fill="white"/>
<path d="M56.5303 68.1338H60.5148V72.1183H56.5303V68.1338Z" fill="white"/>
<path d="M68.4838 68.1338H72.4683V72.1183H68.4838V68.1338Z" fill="white"/>
<path d="M72.4683 68.1338H76.4528V72.1183H72.4683V68.1338Z" fill="white"/>
<path d="M92.3908 68.1338H96.3753V72.1183H92.3908V68.1338Z" fill="white"/>
<path d="M104.344 68.1338H108.329V72.1183H104.344V68.1338Z" fill="white"/>
<path d="M108.329 68.1338H112.313V72.1183H108.329V68.1338Z" fill="white"/>
<path d="M116.298 68.1338H120.282V72.1183H116.298V68.1338Z" fill="white"/>
<path d="M120.282 68.1338H124.267V72.1183H120.282V68.1338Z" fill="white"/>
<path d="M132.236 68.1338H136.22V72.1183H132.236V68.1338Z" fill="white"/>
<path d="M140.205 68.1338H144.189V72.1183H140.205V68.1338Z" fill="white"/>
<path d="M144.189 68.1338H148.174V72.1183H144.189V68.1338Z" fill="white"/>
<path d="M156.143 68.1338H160.127V72.1183H156.143V68.1338Z" fill="white"/>
<path d="M160.127 68.1338H164.112V72.1183H160.127V68.1338Z" fill="white"/>
<path d="M164.112 68.1338H168.096V72.1183H164.112V68.1338Z" fill="white"/>
<path d="M184.034 68.1338H188.019V72.1183H184.034V68.1338Z" fill="white"/>
<path d="M188.019 68.1338H192.003V72.1183H188.019V68.1338Z" fill="white"/>
<path d="M192.003 68.1338H195.988V72.1183H192.003V68.1338Z" fill="white"/>
<path d="M4.73181 72.1183H8.71631V76.1028H4.73181V72.1183Z" fill="white"/>
<path d="M8.71631 72.1183H12.7008V76.1028H8.71631V72.1183Z" fill="white"/>
<path d="M20.6698 72.1183H24.6543V76.1028H20.6698V72.1183Z" fill="white"/>
<path d="M24.6543 72.1183H28.6388V76.1028H24.6543V72.1183Z" fill="white"/>
<path d="M28.6388 72.1183H32.6233V76.1028H28.6388V72.1183Z" fill="white"/>
<path d="M32.6233 72.1183H36.6078V76.1028H32.6233V72.1183Z" fill="white"/>
<path d="M36.6078 72.1183H40.5923V76.1028H36.6078V72.1183Z" fill="white"/>
<path d="M40.5923 72.1183H44.5768V76.1028H40.5923V72.1183Z" fill="white"/>
<path d="M48.5613 72.1183H52.5458V76.1028H48.5613V72.1183Z" fill="white"/>
<path d="M52.5458 72.1183H56.5303V76.1028H52.5458V72.1183Z" fill="white"/>
<path d="M60.5148 72.1183H64.4993V76.1028H60.5148V72.1183Z" fill="white"/>
<path d="M64.4993 72.1183H68.4838V76.1028H64.4993V72.1183Z" fill="white"/>
<path d="M68.4838 72.1183H72.4683V76.1028H68.4838V72.1183Z" fill="white"/>
<path d="M72.4683 72.1183H76.4528V76.1028H72.4683V72.1183Z" fill="white"/>
<path d="M88.4063 72.1183H92.3908V76.1028H88.4063V72.1183Z" fill="white"/>
<path d="M100.36 72.1183H104.344V76.1028H100.36V72.1183Z" fill="white"/>
<path d="M116.298 72.1183H120.282V76.1028H116.298V72.1183Z" fill="white"/>
<path d="M124.267 72.1183H128.251V76.1028H124.267V72.1183Z" fill="white"/>
<path d="M128.251 72.1183H132.236V76.1028H128.251V72.1183Z" fill="white"/>
<path d="M132.236 72.1183H136.22V76.1028H132.236V72.1183Z" fill="white"/>
<path d="M136.22 72.1183H140.205V76.1028H136.22V72.1183Z" fill="white"/>
<path d="M144.189 72.1183H148.174V76.1028H144.189V72.1183Z" fill="white"/>
<path d="M152.158 72.1183H156.143V76.1028H152.158V72.1183Z" fill="white"/>
<path d="M156.143 72.1183H160.127V76.1028H156.143V72.1183Z" fill="white"/>
<path d="M180.05 72.1183H184.034V76.1028H180.05V72.1183Z" fill="white"/>
<path d="M184.034 72.1183H188.019V76.1028H184.034V72.1183Z" fill="white"/>
<path d="M192.003 72.1183H195.988V76.1028H192.003V72.1183Z" fill="white"/>
<path d="M8.71631 76.1028H12.7008V80.0873H8.71631V76.1028Z" fill="white"/>
<path d="M12.7008 76.1028H16.6853V80.0873H12.7008V76.1028Z" fill="white"/>
<path d="M28.6388 76.1028H32.6233V80.0873H28.6388V76.1028Z" fill="white"/>
<path d="M36.6078 76.1028H40.5923V80.0873H36.6078V76.1028Z" fill="white"/>
<path d="M52.5458 76.1028H56.5303V80.0873H52.5458V76.1028Z" fill="white"/>
<path d="M64.4993 76.1028H68.4838V80.0873H64.4993V76.1028Z" fill="white"/>
<path d="M72.4683 76.1028H76.4528V80.0873H72.4683V76.1028Z" fill="white"/>
<path d="M84.4218 76.1028H88.4063V80.0873H84.4218V76.1028Z" fill="white"/>
<path d="M100.36 76.1028H104.344V80.0873H100.36V76.1028Z" fill="white"/>
<path d="M104.344 76.1028H108.329V80.0873H104.344V76.1028Z" fill="white"/>
<path d="M108.329 76.1028H112.313V80.0873H108.329V76.1028Z" fill="white"/>
<path d="M144.189 76.1028H148.174V80.0873H144.189V76.1028Z" fill="white"/>
<path d="M148.174 76.1028H152.158V80.0873H148.174V76.1028Z" fill="white"/>
<path d="M152.158 76.1028H156.143V80.0873H152.158V76.1028Z" fill="white"/>
<path d="M172.081 76.1028H176.065V80.0873H172.081V76.1028Z" fill="white"/>
<path d="M176.065 76.1028H180.05V80.0873H176.065V76.1028Z" fill="white"/>
<path d="M180.05 76.1028H184.034V80.0873H180.05V76.1028Z" fill="white"/>
<path d="M188.019 76.1028H192.003V80.0873H188.019V76.1028Z" fill="white"/>
<path d="M8.71631 80.0873H12.7008V84.0718H8.71631V80.0873Z" fill="white"/>
<path d="M20.6698 80.0873H24.6543V84.0718H20.6698V80.0873Z" fill="white"/>
<path d="M24.6543 80.0873H28.6388V84.0718H24.6543V80.0873Z" fill="white"/>
<path d="M28.6388 80.0873H32.6233V84.0718H28.6388V80.0873Z" fill="white"/>
<path d="M36.6078 80.0873H40.5923V84.0718H36.6078V80.0873Z" fill="white"/>
<path d="M44.5768 80.0873H48.5613V84.0718H44.5768V80.0873Z" fill="white"/>
<path d="M48.5613 80.0873H52.5458V84.0718H48.5613V80.0873Z" fill="white"/>
<path d="M52.5458 80.0873H56.5303V84.0718H52.5458V80.0873Z" fill="white"/>
<path d="M56.5303 80.0873H60.5148V84.0718H56.5303V80.0873Z" fill="white"/>
<path d="M68.4838 80.0873H72.4683V84.0718H68.4838V80.0873Z" fill="white"/>
<path d="M80.4373 80.0873H84.4218V84.0718H80.4373V80.0873Z" fill="white"/>
<path d="M84.4218 80.0873H88.4063V84.0718H84.4218V80.0873Z" fill="white"/>
<path d="M96.3753 80.0873H100.36V84.0718H96.3753V80.0873Z" fill="white"/>
<path d="M100.36 80.0873H104.344V84.0718H100.36V80.0873Z" fill="white"/>
<path d="M104.344 80.0873H108.329V84.0718H104.344V80.0873Z" fill="white"/>
<path d="M108.329 80.0873H112.313V84.0718H108.329V80.0873Z" fill="white"/>
<path d="M112.313 80.0873H116.298V84.0718H112.313V80.0873Z" fill="white"/>
<path d="M124.267 80.0873H128.251V84.0718H124.267V80.0873Z" fill="white"/>
<path d="M128.251 80.0873H132.236V84.0718H128.251V80.0873Z" fill="white"/>
<path d="M132.236 80.0873H136.22V84.0718H132.236V80.0873Z" fill="white"/>
<path d="M136.22 80.0873H140.205V84.0718H136.22V80.0873Z" fill="white"/>
<path d="M144.189 80.0873H148.174V84.0718H144.189V80.0873Z" fill="white"/>
<path d="M164.112 80.0873H168.096V84.0718H164.112V80.0873Z" fill="white"/>
<path d="M168.096 80.0873H172.081V84.0718H168.096V80.0873Z" fill="white"/>
<path d="M176.065 80.0873H180.05V84.0718H176.065V80.0873Z" fill="white"/>
<path d="M188.019 80.0873H192.003V84.0718H188.019V80.0873Z" fill="white"/>
<path d="M192.003 80.0873H195.988V84.0718H192.003V80.0873Z" fill="white"/>
<path d="M0.747314 84.0718H4.73181V88.0563H0.747314V84.0718Z" fill="white"/>
<path d="M20.6698 84.0718H24.6543V88.0563H20.6698V84.0718Z" fill="white"/>
<path d="M36.6078 84.0718H40.5923V88.0563H36.6078V84.0718Z" fill="white"/>
<path d="M48.5613 84.0718H52.5458V88.0563H48.5613V84.0718Z" fill="white"/>
<path d="M60.5148 84.0718H64.4993V88.0563H60.5148V84.0718Z" fill="white"/>
<path d="M68.4838 84.0718H72.4683V88.0563H68.4838V84.0718Z" fill="white"/>
<path d="M76.4528 84.0718H80.4373V88.0563H76.4528V84.0718Z" fill="white"/>
<path d="M88.4063 84.0718H92.3908V88.0563H88.4063V84.0718Z" fill="white"/>
<path d="M92.3908 84.0718H96.3753V88.0563H92.3908V84.0718Z" fill="white"/>
<path d="M100.36 84.0718H104.344V88.0563H100.36V84.0718Z" fill="white"/>
<path d="M120.282 84.0718H124.267V88.0563H120.282V84.0718Z" fill="white"/>
<path d="M128.251 84.0718H132.236V88.0563H128.251V84.0718Z" fill="white"/>
<path d="M132.236 84.0718H136.22V88.0563H132.236V84.0718Z" fill="white"/>
<path d="M144.189 84.0718H148.174V88.0563H144.189V84.0718Z" fill="white"/>
<path d="M164.112 84.0718H168.096V88.0563H164.112V84.0718Z" fill="white"/>
<path d="M192.003 84.0718H195.988V88.0563H192.003V84.0718Z" fill="white"/>
<path d="M0.747314 88.0563H4.73181V92.0408H0.747314V88.0563Z" fill="white"/>
<path d="M12.7008 88.0563H16.6853V92.0408H12.7008V88.0563Z" fill="white"/>
<path d="M16.6853 88.0563H20.6698V92.0408H16.6853V88.0563Z" fill="white"/>
<path d="M20.6698 88.0563H24.6543V92.0408H20.6698V88.0563Z" fill="white"/>
<path d="M24.6543 88.0563H28.6388V92.0408H24.6543V88.0563Z" fill="white"/>
<path d="M28.6388 88.0563H32.6233V92.0408H28.6388V88.0563Z" fill="white"/>
<path d="M32.6233 88.0563H36.6078V92.0408H32.6233V88.0563Z" fill="white"/>
<path d="M40.5923 88.0563H44.5768V92.0408H40.5923V88.0563Z" fill="white"/>
<path d="M44.5768 88.0563H48.5613V92.0408H44.5768V88.0563Z" fill="white"/>
<path d="M60.5148 88.0563H64.4993V92.0408H60.5148V88.0563Z" fill="white"/>
<path d="M72.4683 88.0563H76.4528V92.0408H72.4683V88.0563Z" fill="white"/>
<path d="M80.4373 88.0563H84.4218V92.0408H80.4373V88.0563Z" fill="white"/>
<path d="M88.4063 88.0563H92.3908V92.0408H88.4063V88.0563Z" fill="white"/>
<path d="M92.3908 88.0563H96.3753V92.0408H92.3908V88.0563Z" fill="white"/>
<path d="M96.3753 88.0563H100.36V92.0408H96.3753V88.0563Z" fill="white"/>
<path d="M100.36 88.0563H104.344V92.0408H100.36V88.0563Z" fill="white"/>
<path d="M104.344 88.0563H108.329V92.0408H104.344V88.0563Z" fill="white"/>
<path d="M112.313 88.0563H116.298V92.0408H112.313V88.0563Z" fill="white"/>
<path d="M120.282 88.0563H124.267V92.0408H120.282V88.0563Z" fill="white"/>
<path d="M124.267 88.0563H128.251V92.0408H124.267V88.0563Z" fill="white"/>
<path d="M128.251 88.0563H132.236V92.0408H128.251V88.0563Z" fill="white"/>
<path d="M140.205 88.0563H144.189V92.0408H140.205V88.0563Z" fill="white"/>
<path d="M144.189 88.0563H148.174V92.0408H144.189V88.0563Z" fill="white"/>
<path d="M148.174 88.0563H152.158V92.0408H148.174V88.0563Z" fill="white"/>
<path d="M156.143 88.0563H160.127V92.0408H156.143V88.0563Z" fill="white"/>
<path d="M160.127 88.0563H164.112V92.0408H160.127V88.0563Z" fill="white"/>
<path d="M164.112 88.0563H168.096V92.0408H164.112V88.0563Z" fill="white"/>
<path d="M168.096 88.0563H172.081V92.0408H168.096V88.0563Z" fill="white"/>
<path d="M172.081 88.0563H176.065V92.0408H172.081V88.0563Z" fill="white"/>
<path d="M176.065 88.0563H180.05V92.0408H176.065V88.0563Z" fill="white"/>
<path d="M180.05 88.0563H184.034V92.0408H180.05V88.0563Z" fill="white"/>
<path d="M184.034 88.0563H188.019V92.0408H184.034V88.0563Z" fill="white"/>
<path d="M192.003 88.0563H195.988V92.0408H192.003V88.0563Z" fill="white"/>
<path d="M0.747314 92.0408H4.73181V96.0253H0.747314V92.0408Z" fill="white"/>
<path d="M16.6853 92.0408H20.6698V96.0253H16.6853V92.0408Z" fill="white"/>
<path d="M32.6233 92.0408H36.6078V96.0253H32.6233V92.0408Z" fill="white"/>
<path d="M36.6078 92.0408H40.5923V96.0253H36.6078V92.0408Z" fill="white"/>
<path d="M56.5303 92.0408H60.5148V96.0253H56.5303V92.0408Z" fill="white"/>
<path d="M68.4838 92.0408H72.4683V96.0253H68.4838V92.0408Z" fill="white"/>
<path d="M72.4683 92.0408H76.4528V96.0253H72.4683V92.0408Z" fill="white"/>
<path d="M88.4063 92.0408H92.3908V96.0253H88.4063V92.0408Z" fill="white"/>
<path d="M104.344 92.0408H108.329V96.0253H104.344V92.0408Z" fill="white"/>
<path d="M120.282 92.0408H124.267V96.0253H120.282V92.0408Z" fill="white"/>
<path d="M144.189 92.0408H148.174V96.0253H144.189V92.0408Z" fill="white"/>
<path d="M148.174 92.0408H152.158V96.0253H148.174V92.0408Z" fill="white"/>
<path d="M152.158 92.0408H156.143V96.0253H152.158V92.0408Z" fill="white"/>
<path d="M156.143 92.0408H160.127V96.0253H156.143V92.0408Z" fill="white"/>
<path d="M160.127 92.0408H164.112V96.0253H160.127V92.0408Z" fill="white"/>
<path d="M176.065 92.0408H180.05V96.0253H176.065V92.0408Z" fill="white"/>
<path d="M180.05 92.0408H184.034V96.0253H180.05V92.0408Z" fill="white"/>
<path d="M188.019 92.0408H192.003V96.0253H188.019V92.0408Z" fill="white"/>
<path d="M4.73181 96.0253H8.71631V100.01H4.73181V96.0253Z" fill="white"/>
<path d="M12.7008 96.0253H16.6853V100.01H12.7008V96.0253Z" fill="white"/>
<path d="M16.6853 96.0253H20.6698V100.01H16.6853V96.0253Z" fill="white"/>
<path d="M24.6543 96.0253H28.6388V100.01H24.6543V96.0253Z" fill="white"/>
<path d="M32.6233 96.0253H36.6078V100.01H32.6233V96.0253Z" fill="white"/>
<path d="M36.6078 96.0253H40.5923V100.01H36.6078V96.0253Z" fill="white"/>
<path d="M48.5613 96.0253H52.5458V100.01H48.5613V96.0253Z" fill="white"/>
<path d="M52.5458 96.0253H56.5303V100.01H52.5458V96.0253Z" fill="white"/>
<path d="M60.5148 96.0253H64.4993V100.01H60.5148V96.0253Z" fill="white"/>
<path d="M64.4993 96.0253H68.4838V100.01H64.4993V96.0253Z" fill="white"/>
<path d="M68.4838 96.0253H72.4683V100.01H68.4838V96.0253Z" fill="white"/>
<path d="M76.4528 96.0253H80.4373V100.01H76.4528V96.0253Z" fill="white"/>
<path d="M80.4373 96.0253H84.4218V100.01H80.4373V96.0253Z" fill="white"/>
<path d="M88.4063 96.0253H92.3908V100.01H88.4063V96.0253Z" fill="white"/>
<path d="M96.3753 96.0253H100.36V100.01H96.3753V96.0253Z" fill="white"/>
<path d="M104.344 96.0253H108.329V100.01H104.344V96.0253Z" fill="white"/>
<path d="M116.298 96.0253H120.282V100.01H116.298V96.0253Z" fill="white"/>
<path d="M124.267 96.0253H128.251V100.01H124.267V96.0253Z" fill="white"/>
<path d="M128.251 96.0253H132.236V100.01H128.251V96.0253Z" fill="white"/>
<path d="M132.236 96.0253H136.22V100.01H132.236V96.0253Z" fill="white"/>
<path d="M136.22 96.0253H140.205V100.01H136.22V96.0253Z" fill="white"/>
<path d="M144.189 96.0253H148.174V100.01H144.189V96.0253Z" fill="white"/>
<path d="M160.127 96.0253H164.112V100.01H160.127V96.0253Z" fill="white"/>
<path d="M168.096 96.0253H172.081V100.01H168.096V96.0253Z" fill="white"/>
<path d="M176.065 96.0253H180.05V100.01H176.065V96.0253Z" fill="white"/>
<path d="M188.019 96.0253H192.003V100.01H188.019V96.0253Z" fill="white"/>
<path d="M0.747314 100.01H4.73181V103.994H0.747314V100.01Z" fill="white"/>
<path d="M4.73181 100.01H8.71631V103.994H4.73181V100.01Z" fill="white"/>
<path d="M8.71631 100.01H12.7008V103.994H8.71631V100.01Z" fill="white"/>
<path d="M16.6853 100.01H20.6698V103.994H16.6853V100.01Z" fill="white"/>
<path d="M32.6233 100.01H36.6078V103.994H32.6233V100.01Z" fill="white"/>
<path d="M40.5923 100.01H44.5768V103.994H40.5923V100.01Z" fill="white"/>
<path d="M44.5768 100.01H48.5613V103.994H44.5768V100.01Z" fill="white"/>
<path d="M48.5613 100.01H52.5458V103.994H48.5613V100.01Z" fill="white"/>
<path d="M52.5458 100.01H56.5303V103.994H52.5458V100.01Z" fill="white"/>
<path d="M60.5148 100.01H64.4993V103.994H60.5148V100.01Z" fill="white"/>
<path d="M76.4528 100.01H80.4373V103.994H76.4528V100.01Z" fill="white"/>
<path d="M84.4218 100.01H88.4063V103.994H84.4218V100.01Z" fill="white"/>
<path d="M88.4063 100.01H92.3908V103.994H88.4063V100.01Z" fill="white"/>
<path d="M104.344 100.01H108.329V103.994H104.344V100.01Z" fill="white"/>
<path d="M116.298 100.01H120.282V103.994H116.298V100.01Z" fill="white"/>
<path d="M120.282 100.01H124.267V103.994H120.282V100.01Z" fill="white"/>
<path d="M132.236 100.01H136.22V103.994H132.236V100.01Z" fill="white"/>
<path d="M140.205 100.01H144.189V103.994H140.205V100.01Z" fill="white"/>
<path d="M144.189 100.01H148.174V103.994H144.189V100.01Z" fill="white"/>
<path d="M148.174 100.01H152.158V103.994H148.174V100.01Z" fill="white"/>
<path d="M160.127 100.01H164.112V103.994H160.127V100.01Z" fill="white"/>
<path d="M176.065 100.01H180.05V103.994H176.065V100.01Z" fill="white"/>
<path d="M188.019 100.01H192.003V103.994H188.019V100.01Z" fill="white"/>
<path d="M192.003 100.01H195.988V103.994H192.003V100.01Z" fill="white"/>
<path d="M0.747314 103.994H4.73181V107.979H0.747314V103.994Z" fill="white"/>
<path d="M16.6853 103.994H20.6698V107.979H16.6853V103.994Z" fill="white"/>
<path d="M20.6698 103.994H24.6543V107.979H20.6698V103.994Z" fill="white"/>
<path d="M24.6543 103.994H28.6388V107.979H24.6543V103.994Z" fill="white"/>
<path d="M28.6388 103.994H32.6233V107.979H28.6388V103.994Z" fill="white"/>
<path d="M32.6233 103.994H36.6078V107.979H32.6233V103.994Z" fill="white"/>
<path d="M36.6078 103.994H40.5923V107.979H36.6078V103.994Z" fill="white"/>
<path d="M44.5768 103.994H48.5613V107.979H44.5768V103.994Z" fill="white"/>
<path d="M48.5613 103.994H52.5458V107.979H48.5613V103.994Z" fill="white"/>
<path d="M64.4993 103.994H68.4838V107.979H64.4993V103.994Z" fill="white"/>
<path d="M72.4683 103.994H76.4528V107.979H72.4683V103.994Z" fill="white"/>
<path d="M76.4528 103.994H80.4373V107.979H76.4528V103.994Z" fill="white"/>
<path d="M88.4063 103.994H92.3908V107.979H88.4063V103.994Z" fill="white"/>
<path d="M92.3908 103.994H96.3753V107.979H92.3908V103.994Z" fill="white"/>
<path d="M96.3753 103.994H100.36V107.979H96.3753V103.994Z" fill="white"/>
<path d="M100.36 103.994H104.344V107.979H100.36V103.994Z" fill="white"/>
<path d="M104.344 103.994H108.329V107.979H104.344V103.994Z" fill="white"/>
<path d="M108.329 103.994H112.313V107.979H108.329V103.994Z" fill="white"/>
<path d="M112.313 103.994H116.298V107.979H112.313V103.994Z" fill="white"/>
<path d="M116.298 103.994H120.282V107.979H116.298V103.994Z" fill="white"/>
<path d="M120.282 103.994H124.267V107.979H120.282V103.994Z" fill="white"/>
<path d="M124.267 103.994H128.251V107.979H124.267V103.994Z" fill="white"/>
<path d="M128.251 103.994H132.236V107.979H128.251V103.994Z" fill="white"/>
<path d="M148.174 103.994H152.158V107.979H148.174V103.994Z" fill="white"/>
<path d="M156.143 103.994H160.127V107.979H156.143V103.994Z" fill="white"/>
<path d="M160.127 103.994H164.112V107.979H160.127V103.994Z" fill="white"/>
<path d="M164.112 103.994H168.096V107.979H164.112V103.994Z" fill="white"/>
<path d="M168.096 103.994H172.081V107.979H168.096V103.994Z" fill="white"/>
<path d="M172.081 103.994H176.065V107.979H172.081V103.994Z" fill="white"/>
<path d="M176.065 103.994H180.05V107.979H176.065V103.994Z" fill="white"/>
<path d="M180.05 103.994H184.034V107.979H180.05V103.994Z" fill="white"/>
<path d="M184.034 103.994H188.019V107.979H184.034V103.994Z" fill="white"/>
<path d="M192.003 103.994H195.988V107.979H192.003V103.994Z" fill="white"/>
<path d="M4.73181 107.979H8.71631V111.963H4.73181V107.979Z" fill="white"/>
<path d="M8.71631 107.979H12.7008V111.963H8.71631V107.979Z" fill="white"/>
<path d="M16.6853 107.979H20.6698V111.963H16.6853V107.979Z" fill="white"/>
<path d="M20.6698 107.979H24.6543V111.963H20.6698V107.979Z" fill="white"/>
<path d="M28.6388 107.979H32.6233V111.963H28.6388V107.979Z" fill="white"/>
<path d="M36.6078 107.979H40.5923V111.963H36.6078V107.979Z" fill="white"/>
<path d="M48.5613 107.979H52.5458V111.963H48.5613V107.979Z" fill="white"/>
<path d="M60.5148 107.979H64.4993V111.963H60.5148V107.979Z" fill="white"/>
<path d="M64.4993 107.979H68.4838V111.963H64.4993V107.979Z" fill="white"/>
<path d="M68.4838 107.979H72.4683V111.963H68.4838V107.979Z" fill="white"/>
<path d="M72.4683 107.979H76.4528V111.963H72.4683V107.979Z" fill="white"/>
<path d="M76.4528 107.979H80.4373V111.963H76.4528V107.979Z" fill="white"/>
<path d="M88.4063 107.979H92.3908V111.963H88.4063V107.979Z" fill="white"/>
<path d="M112.313 107.979H116.298V111.963H112.313V107.979Z" fill="white"/>
<path d="M116.298 107.979H120.282V111.963H116.298V107.979Z" fill="white"/>
<path d="M128.251 107.979H132.236V111.963H128.251V107.979Z" fill="white"/>
<path d="M132.236 107.979H136.22V111.963H132.236V107.979Z" fill="white"/>
<path d="M136.22 107.979H140.205V111.963H136.22V107.979Z" fill="white"/>
<path d="M140.205 107.979H144.189V111.963H140.205V107.979Z" fill="white"/>
<path d="M144.189 107.979H148.174V111.963H144.189V107.979Z" fill="white"/>
<path d="M148.174 107.979H152.158V111.963H148.174V107.979Z" fill="white"/>
<path d="M160.127 107.979H164.112V111.963H160.127V107.979Z" fill="white"/>
<path d="M164.112 107.979H168.096V111.963H164.112V107.979Z" fill="white"/>
<path d="M168.096 107.979H172.081V111.963H168.096V107.979Z" fill="white"/>
<path d="M172.081 107.979H176.065V111.963H172.081V107.979Z" fill="white"/>
<path d="M180.05 107.979H184.034V111.963H180.05V107.979Z" fill="white"/>
<path d="M192.003 107.979H195.988V111.963H192.003V107.979Z" fill="white"/>
<path d="M0.747314 111.963H4.73181V115.948H0.747314V111.963Z" fill="white"/>
<path d="M16.6853 111.963H20.6698V115.948H16.6853V111.963Z" fill="white"/>
<path d="M24.6543 111.963H28.6388V115.948H24.6543V111.963Z" fill="white"/>
<path d="M32.6233 111.963H36.6078V115.948H32.6233V111.963Z" fill="white"/>
<path d="M52.5458 111.963H56.5303V115.948H52.5458V111.963Z" fill="white"/>
<path d="M56.5303 111.963H60.5148V115.948H56.5303V111.963Z" fill="white"/>
<path d="M64.4993 111.963H68.4838V115.948H64.4993V111.963Z" fill="white"/>
<path d="M72.4683 111.963H76.4528V115.948H72.4683V111.963Z" fill="white"/>
<path d="M80.4373 111.963H84.4218V115.948H80.4373V111.963Z" fill="white"/>
<path d="M88.4063 111.963H92.3908V115.948H88.4063V111.963Z" fill="white"/>
<path d="M92.3908 111.963H96.3753V115.948H92.3908V111.963Z" fill="white"/>
<path d="M96.3753 111.963H100.36V115.948H96.3753V111.963Z" fill="white"/>
<path d="M116.298 111.963H120.282V115.948H116.298V111.963Z" fill="white"/>
<path d="M144.189 111.963H148.174V115.948H144.189V111.963Z" fill="white"/>
<path d="M148.174 111.963H152.158V115.948H148.174V111.963Z" fill="white"/>
<path d="M152.158 111.963H156.143V115.948H152.158V111.963Z" fill="white"/>
<path d="M156.143 111.963H160.127V115.948H156.143V111.963Z" fill="white"/>
<path d="M160.127 111.963H164.112V115.948H160.127V111.963Z" fill="white"/>
<path d="M168.096 111.963H172.081V115.948H168.096V111.963Z" fill="white"/>
<path d="M176.065 111.963H180.05V115.948H176.065V111.963Z" fill="white"/>
<path d="M192.003 111.963H195.988V115.948H192.003V111.963Z" fill="white"/>
<path d="M8.71631 115.948H12.7008V119.932H8.71631V115.948Z" fill="white"/>
<path d="M16.6853 115.948H20.6698V119.932H16.6853V115.948Z" fill="white"/>
<path d="M36.6078 115.948H40.5923V119.932H36.6078V115.948Z" fill="white"/>
<path d="M40.5923 115.948H44.5768V119.932H40.5923V115.948Z" fill="white"/>
<path d="M52.5458 115.948H56.5303V119.932H52.5458V115.948Z" fill="white"/>
<path d="M60.5148 115.948H64.4993V119.932H60.5148V115.948Z" fill="white"/>
<path d="M64.4993 115.948H68.4838V119.932H64.4993V115.948Z" fill="white"/>
<path d="M84.4218 115.948H88.4063V119.932H84.4218V115.948Z" fill="white"/>
<path d="M88.4063 115.948H92.3908V119.932H88.4063V115.948Z" fill="white"/>
<path d="M96.3753 115.948H100.36V119.932H96.3753V115.948Z" fill="white"/>
<path d="M104.344 115.948H108.329V119.932H104.344V115.948Z" fill="white"/>
<path d="M108.329 115.948H112.313V119.932H108.329V115.948Z" fill="white"/>
<path d="M128.251 115.948H132.236V119.932H128.251V115.948Z" fill="white"/>
<path d="M132.236 115.948H136.22V119.932H132.236V115.948Z" fill="white"/>
<path d="M140.205 115.948H144.189V119.932H140.205V115.948Z" fill="white"/>
<path d="M148.174 115.948H152.158V119.932H148.174V115.948Z" fill="white"/>
<path d="M160.127 115.948H164.112V119.932H160.127V115.948Z" fill="white"/>
<path d="M164.112 115.948H168.096V119.932H164.112V115.948Z" fill="white"/>
<path d="M184.034 115.948H188.019V119.932H184.034V115.948Z" fill="white"/>
<path d="M188.019 115.948H192.003V119.932H188.019V115.948Z" fill="white"/>
<path d="M192.003 115.948H195.988V119.932H192.003V115.948Z" fill="white"/>
<path d="M0.747314 119.932H4.73181V123.917H0.747314V119.932Z" fill="white"/>
<path d="M4.73181 119.932H8.71631V123.917H4.73181V119.932Z" fill="white"/>
<path d="M8.71631 119.932H12.7008V123.917H8.71631V119.932Z" fill="white"/>
<path d="M12.7008 119.932H16.6853V123.917H12.7008V119.932Z" fill="white"/>
<path d="M24.6543 119.932H28.6388V123.917H24.6543V119.932Z" fill="white"/>
<path d="M28.6388 119.932H32.6233V123.917H28.6388V119.932Z" fill="white"/>
<path d="M44.5768 119.932H48.5613V123.917H44.5768V119.932Z" fill="white"/>
<path d="M52.5458 119.932H56.5303V123.917H52.5458V119.932Z" fill="white"/>
<path d="M56.5303 119.932H60.5148V123.917H56.5303V119.932Z" fill="white"/>
<path d="M60.5148 119.932H64.4993V123.917H60.5148V119.932Z" fill="white"/>
<path d="M64.4993 119.932H68.4838V123.917H64.4993V119.932Z" fill="white"/>
<path d="M68.4838 119.932H72.4683V123.917H68.4838V119.932Z" fill="white"/>
<path d="M84.4218 119.932H88.4063V123.917H84.4218V119.932Z" fill="white"/>
<path d="M100.36 119.932H104.344V123.917H100.36V119.932Z" fill="white"/>
<path d="M116.298 119.932H120.282V123.917H116.298V119.932Z" fill="white"/>
<path d="M120.282 119.932H124.267V123.917H120.282V119.932Z" fill="white"/>
<path d="M128.251 119.932H132.236V123.917H128.251V119.932Z" fill="white"/>
<path d="M132.236 119.932H136.22V123.917H132.236V119.932Z" fill="white"/>
<path d="M140.205 119.932H144.189V123.917H140.205V119.932Z" fill="white"/>
<path d="M144.189 119.932H148.174V123.917H144.189V119.932Z" fill="white"/>
<path d="M148.174 119.932H152.158V123.917H148.174V119.932Z" fill="white"/>
<path d="M156.143 119.932H160.127V123.917H156.143V119.932Z" fill="white"/>
<path d="M164.112 119.932H168.096V123.917H164.112V119.932Z" fill="white"/>
<path d="M168.096 119.932H172.081V123.917H168.096V119.932Z" fill="white"/>
<path d="M172.081 119.932H176.065V123.917H172.081V119.932Z" fill="white"/>
<path d="M180.05 119.932H184.034V123.917H180.05V119.932Z" fill="white"/>
<path d="M184.034 119.932H188.019V123.917H184.034V119.932Z" fill="white"/>
<path d="M188.019 119.932H192.003V123.917H188.019V119.932Z" fill="white"/>
<path d="M0.747314 123.917H4.73181V127.901H0.747314V123.917Z" fill="white"/>
<path d="M12.7008 123.917H16.6853V127.901H12.7008V123.917Z" fill="white"/>
<path d="M16.6853 123.917H20.6698V127.901H16.6853V123.917Z" fill="white"/>
<path d="M28.6388 123.917H32.6233V127.901H28.6388V123.917Z" fill="white"/>
<path d="M32.6233 123.917H36.6078V127.901H32.6233V123.917Z" fill="white"/>
<path d="M36.6078 123.917H40.5923V127.901H36.6078V123.917Z" fill="white"/>
<path d="M44.5768 123.917H48.5613V127.901H44.5768V123.917Z" fill="white"/>
<path d="M52.5458 123.917H56.5303V127.901H52.5458V123.917Z" fill="white"/>
<path d="M56.5303 123.917H60.5148V127.901H56.5303V123.917Z" fill="white"/>
<path d="M60.5148 123.917H64.4993V127.901H60.5148V123.917Z" fill="white"/>
<path d="M64.4993 123.917H68.4838V127.901H64.4993V123.917Z" fill="white"/>
<path d="M68.4838 123.917H72.4683V127.901H68.4838V123.917Z" fill="white"/>
<path d="M72.4683 123.917H76.4528V127.901H72.4683V123.917Z" fill="white"/>
<path d="M76.4528 123.917H80.4373V127.901H76.4528V123.917Z" fill="white"/>
<path d="M80.4373 123.917H84.4218V127.901H80.4373V123.917Z" fill="white"/>
<path d="M88.4063 123.917H92.3908V127.901H88.4063V123.917Z" fill="white"/>
<path d="M92.3908 123.917H96.3753V127.901H92.3908V123.917Z" fill="white"/>
<path d="M96.3753 123.917H100.36V127.901H96.3753V123.917Z" fill="white"/>
<path d="M100.36 123.917H104.344V127.901H100.36V123.917Z" fill="white"/>
<path d="M104.344 123.917H108.329V127.901H104.344V123.917Z" fill="white"/>
<path d="M116.298 123.917H120.282V127.901H116.298V123.917Z" fill="white"/>
<path d="M120.282 123.917H124.267V127.901H120.282V123.917Z" fill="white"/>
<path d="M144.189 123.917H148.174V127.901H144.189V123.917Z" fill="white"/>
<path d="M156.143 123.917H160.127V127.901H156.143V123.917Z" fill="white"/>
<path d="M160.127 123.917H164.112V127.901H160.127V123.917Z" fill="white"/>
<path d="M168.096 123.917H172.081V127.901H168.096V123.917Z" fill="white"/>
<path d="M172.081 123.917H176.065V127.901H172.081V123.917Z" fill="white"/>
<path d="M184.034 123.917H188.019V127.901H184.034V123.917Z" fill="white"/>
<path d="M188.019 123.917H192.003V127.901H188.019V123.917Z" fill="white"/>
<path d="M192.003 123.917H195.988V127.901H192.003V123.917Z" fill="white"/>
<path d="M4.73181 127.901H8.71631V131.886H4.73181V127.901Z" fill="white"/>
<path d="M12.7008 127.901H16.6853V131.886H12.7008V127.901Z" fill="white"/>
<path d="M16.6853 127.901H20.6698V131.886H16.6853V127.901Z" fill="white"/>
<path d="M24.6543 127.901H28.6388V131.886H24.6543V127.901Z" fill="white"/>
<path d="M28.6388 127.901H32.6233V131.886H28.6388V127.901Z" fill="white"/>
<path d="M32.6233 127.901H36.6078V131.886H32.6233V127.901Z" fill="white"/>
<path d="M48.5613 127.901H52.5458V131.886H48.5613V127.901Z" fill="white"/>
<path d="M60.5148 127.901H64.4993V131.886H60.5148V127.901Z" fill="white"/>
<path d="M68.4838 127.901H72.4683V131.886H68.4838V127.901Z" fill="white"/>
<path d="M72.4683 127.901H76.4528V131.886H72.4683V127.901Z" fill="white"/>
<path d="M80.4373 127.901H84.4218V131.886H80.4373V127.901Z" fill="white"/>
<path d="M92.3908 127.901H96.3753V131.886H92.3908V127.901Z" fill="white"/>
<path d="M96.3753 127.901H100.36V131.886H96.3753V127.901Z" fill="white"/>
<path d="M108.329 127.901H112.313V131.886H108.329V127.901Z" fill="white"/>
<path d="M112.313 127.901H116.298V131.886H112.313V127.901Z" fill="white"/>
<path d="M116.298 127.901H120.282V131.886H116.298V127.901Z" fill="white"/>
<path d="M120.282 127.901H124.267V131.886H120.282V127.901Z" fill="white"/>
<path d="M124.267 127.901H128.251V131.886H124.267V127.901Z" fill="white"/>
<path d="M136.22 127.901H140.205V131.886H136.22V127.901Z" fill="white"/>
<path d="M144.189 127.901H148.174V131.886H144.189V127.901Z" fill="white"/>
<path d="M156.143 127.901H160.127V131.886H156.143V127.901Z" fill="white"/>
<path d="M168.096 127.901H172.081V131.886H168.096V127.901Z" fill="white"/>
<path d="M172.081 127.901H176.065V131.886H172.081V127.901Z" fill="white"/>
<path d="M176.065 127.901H180.05V131.886H176.065V127.901Z" fill="white"/>
<path d="M184.034 127.901H188.019V131.886H184.034V127.901Z" fill="white"/>
<path d="M192.003 127.901H195.988V131.886H192.003V127.901Z" fill="white"/>
<path d="M0.747314 131.886H4.73181V135.87H0.747314V131.886Z" fill="white"/>
<path d="M8.71631 131.886H12.7008V135.87H8.71631V131.886Z" fill="white"/>
<path d="M16.6853 131.886H20.6698V135.87H16.6853V131.886Z" fill="white"/>
<path d="M20.6698 131.886H24.6543V135.87H20.6698V131.886Z" fill="white"/>
<path d="M28.6388 131.886H32.6233V135.87H28.6388V131.886Z" fill="white"/>
<path d="M32.6233 131.886H36.6078V135.87H32.6233V131.886Z" fill="white"/>
<path d="M40.5923 131.886H44.5768V135.87H40.5923V131.886Z" fill="white"/>
<path d="M44.5768 131.886H48.5613V135.87H44.5768V131.886Z" fill="white"/>
<path d="M60.5148 131.886H64.4993V135.87H60.5148V131.886Z" fill="white"/>
<path d="M68.4838 131.886H72.4683V135.87H68.4838V131.886Z" fill="white"/>
<path d="M72.4683 131.886H76.4528V135.87H72.4683V131.886Z" fill="white"/>
<path d="M92.3908 131.886H96.3753V135.87H92.3908V131.886Z" fill="white"/>
<path d="M96.3753 131.886H100.36V135.87H96.3753V131.886Z" fill="white"/>
<path d="M108.329 131.886H112.313V135.87H108.329V131.886Z" fill="white"/>
<path d="M116.298 131.886H120.282V135.87H116.298V131.886Z" fill="white"/>
<path d="M124.267 131.886H128.251V135.87H124.267V131.886Z" fill="white"/>
<path d="M128.251 131.886H132.236V135.87H128.251V131.886Z" fill="white"/>
<path d="M144.189 131.886H148.174V135.87H144.189V131.886Z" fill="white"/>
<path d="M148.174 131.886H152.158V135.87H148.174V131.886Z" fill="white"/>
<path d="M152.158 131.886H156.143V135.87H152.158V131.886Z" fill="white"/>
<path d="M160.127 131.886H164.112V135.87H160.127V131.886Z" fill="white"/>
<path d="M164.112 131.886H168.096V135.87H164.112V131.886Z" fill="white"/>
<path d="M172.081 131.886H176.065V135.87H172.081V131.886Z" fill="white"/>
<path d="M180.05 131.886H184.034V135.87H180.05V131.886Z" fill="white"/>
<path d="M184.034 131.886H188.019V135.87H184.034V131.886Z" fill="white"/>
<path d="M188.019 131.886H192.003V135.87H188.019V131.886Z" fill="white"/>
<path d="M0.747314 135.87H4.73181V139.855H0.747314V135.87Z" fill="white"/>
<path d="M8.71631 135.87H12.7008V139.855H8.71631V135.87Z" fill="white"/>
<path d="M16.6853 135.87H20.6698V139.855H16.6853V135.87Z" fill="white"/>
<path d="M24.6543 135.87H28.6388V139.855H24.6543V135.87Z" fill="white"/>
<path d="M28.6388 135.87H32.6233V139.855H28.6388V135.87Z" fill="white"/>
<path d="M36.6078 135.87H40.5923V139.855H36.6078V135.87Z" fill="white"/>
<path d="M40.5923 135.87H44.5768V139.855H40.5923V135.87Z" fill="white"/>
<path d="M52.5458 135.87H56.5303V139.855H52.5458V135.87Z" fill="white"/>
<path d="M56.5303 135.87H60.5148V139.855H56.5303V135.87Z" fill="white"/>
<path d="M64.4993 135.87H68.4838V139.855H64.4993V135.87Z" fill="white"/>
<path d="M80.4373 135.87H84.4218V139.855H80.4373V135.87Z" fill="white"/>
<path d="M112.313 135.87H116.298V139.855H112.313V135.87Z" fill="white"/>
<path d="M116.298 135.87H120.282V139.855H116.298V135.87Z" fill="white"/>
<path d="M124.267 135.87H128.251V139.855H124.267V135.87Z" fill="white"/>
<path d="M128.251 135.87H132.236V139.855H128.251V135.87Z" fill="white"/>
<path d="M132.236 135.87H136.22V139.855H132.236V135.87Z" fill="white"/>
<path d="M136.22 135.87H140.205V139.855H136.22V135.87Z" fill="white"/>
<path d="M140.205 135.87H144.189V139.855H140.205V135.87Z" fill="white"/>
<path d="M144.189 135.87H148.174V139.855H144.189V135.87Z" fill="white"/>
<path d="M160.127 135.87H164.112V139.855H160.127V135.87Z" fill="white"/>
<path d="M164.112 135.87H168.096V139.855H164.112V135.87Z" fill="white"/>
<path d="M168.096 135.87H172.081V139.855H168.096V135.87Z" fill="white"/>
<path d="M172.081 135.87H176.065V139.855H172.081V135.87Z" fill="white"/>
<path d="M176.065 135.87H180.05V139.855H176.065V135.87Z" fill="white"/>
<path d="M180.05 135.87H184.034V139.855H180.05V135.87Z" fill="white"/>
<path d="M184.034 135.87H188.019V139.855H184.034V135.87Z" fill="white"/>
<path d="M188.019 135.87H192.003V139.855H188.019V135.87Z" fill="white"/>
<path d="M192.003 135.87H195.988V139.855H192.003V135.87Z" fill="white"/>
<path d="M0.747314 139.855H4.73181V143.839H0.747314V139.855Z" fill="white"/>
<path d="M4.73181 139.855H8.71631V143.839H4.73181V139.855Z" fill="white"/>
<path d="M16.6853 139.855H20.6698V143.839H16.6853V139.855Z" fill="white"/>
<path d="M32.6233 139.855H36.6078V143.839H32.6233V139.855Z" fill="white"/>
<path d="M36.6078 139.855H40.5923V143.839H36.6078V139.855Z" fill="white"/>
<path d="M56.5303 139.855H60.5148V143.839H56.5303V139.855Z" fill="white"/>
<path d="M64.4993 139.855H68.4838V143.839H64.4993V139.855Z" fill="white"/>
<path d="M76.4528 139.855H80.4373V143.839H76.4528V139.855Z" fill="white"/>
<path d="M80.4373 139.855H84.4218V143.839H80.4373V139.855Z" fill="white"/>
<path d="M84.4218 139.855H88.4063V143.839H84.4218V139.855Z" fill="white"/>
<path d="M88.4063 139.855H92.3908V143.839H88.4063V139.855Z" fill="white"/>
<path d="M104.344 139.855H108.329V143.839H104.344V139.855Z" fill="white"/>
<path d="M108.329 139.855H112.313V143.839H108.329V139.855Z" fill="white"/>
<path d="M112.313 139.855H116.298V143.839H112.313V139.855Z" fill="white"/>
<path d="M124.267 139.855H128.251V143.839H124.267V139.855Z" fill="white"/>
<path d="M132.236 139.855H136.22V143.839H132.236V139.855Z" fill="white"/>
<path d="M156.143 139.855H160.127V143.839H156.143V139.855Z" fill="white"/>
<path d="M160.127 139.855H164.112V143.839H160.127V139.855Z" fill="white"/>
<path d="M168.096 139.855H172.081V143.839H168.096V139.855Z" fill="white"/>
<path d="M172.081 139.855H176.065V143.839H172.081V139.855Z" fill="white"/>
<path d="M0.747314 143.839H4.73181V147.824H0.747314V143.839Z" fill="white"/>
<path d="M16.6853 143.839H20.6698V147.824H16.6853V143.839Z" fill="white"/>
<path d="M20.6698 143.839H24.6543V147.824H20.6698V143.839Z" fill="white"/>
<path d="M24.6543 143.839H28.6388V147.824H24.6543V143.839Z" fill="white"/>
<path d="M28.6388 143.839H32.6233V147.824H28.6388V143.839Z" fill="white"/>
<path d="M52.5458 143.839H56.5303V147.824H52.5458V143.839Z" fill="white"/>
<path d="M60.5148 143.839H64.4993V147.824H60.5148V143.839Z" fill="white"/>
<path d="M88.4063 143.839H92.3908V147.824H88.4063V143.839Z" fill="white"/>
<path d="M104.344 143.839H108.329V147.824H104.344V143.839Z" fill="white"/>
<path d="M112.313 143.839H116.298V147.824H112.313V143.839Z" fill="white"/>
<path d="M124.267 143.839H128.251V147.824H124.267V143.839Z" fill="white"/>
<path d="M132.236 143.839H136.22V147.824H132.236V143.839Z" fill="white"/>
<path d="M156.143 143.839H160.127V147.824H156.143V143.839Z" fill="white"/>
<path d="M160.127 143.839H164.112V147.824H160.127V143.839Z" fill="white"/>
<path d="M172.081 143.839H176.065V147.824H172.081V143.839Z" fill="white"/>
<path d="M176.065 143.839H180.05V147.824H176.065V143.839Z" fill="white"/>
<path d="M180.05 143.839H184.034V147.824H180.05V143.839Z" fill="white"/>
<path d="M192.003 143.839H195.988V147.824H192.003V143.839Z" fill="white"/>
<path d="M0.747314 147.824H4.73181V151.808H0.747314V147.824Z" fill="white"/>
<path d="M4.73181 147.824H8.71631V151.808H4.73181V147.824Z" fill="white"/>
<path d="M8.71631 147.824H12.7008V151.808H8.71631V147.824Z" fill="white"/>
<path d="M16.6853 147.824H20.6698V151.808H16.6853V147.824Z" fill="white"/>
<path d="M32.6233 147.824H36.6078V151.808H32.6233V147.824Z" fill="white"/>
<path d="M52.5458 147.824H56.5303V151.808H52.5458V147.824Z" fill="white"/>
<path d="M60.5148 147.824H64.4993V151.808H60.5148V147.824Z" fill="white"/>
<path d="M72.4683 147.824H76.4528V151.808H72.4683V147.824Z" fill="white"/>
<path d="M76.4528 147.824H80.4373V151.808H76.4528V147.824Z" fill="white"/>
<path d="M84.4218 147.824H88.4063V151.808H84.4218V147.824Z" fill="white"/>
<path d="M92.3908 147.824H96.3753V151.808H92.3908V147.824Z" fill="white"/>
<path d="M96.3753 147.824H100.36V151.808H96.3753V147.824Z" fill="white"/>
<path d="M100.36 147.824H104.344V151.808H100.36V147.824Z" fill="white"/>
<path d="M104.344 147.824H108.329V151.808H104.344V147.824Z" fill="white"/>
<path d="M108.329 147.824H112.313V151.808H108.329V147.824Z" fill="white"/>
<path d="M116.298 147.824H120.282V151.808H116.298V147.824Z" fill="white"/>
<path d="M120.282 147.824H124.267V151.808H120.282V147.824Z" fill="white"/>
<path d="M128.251 147.824H132.236V151.808H128.251V147.824Z" fill="white"/>
<path d="M132.236 147.824H136.22V151.808H132.236V147.824Z" fill="white"/>
<path d="M144.189 147.824H148.174V151.808H144.189V147.824Z" fill="white"/>
<path d="M148.174 147.824H152.158V151.808H148.174V147.824Z" fill="white"/>
<path d="M152.158 147.824H156.143V151.808H152.158V147.824Z" fill="white"/>
<path d="M156.143 147.824H160.127V151.808H156.143V147.824Z" fill="white"/>
<path d="M160.127 147.824H164.112V151.808H160.127V147.824Z" fill="white"/>
<path d="M176.065 147.824H180.05V151.808H176.065V147.824Z" fill="white"/>
<path d="M180.05 147.824H184.034V151.808H180.05V147.824Z" fill="white"/>
<path d="M192.003 147.824H195.988V151.808H192.003V147.824Z" fill="white"/>
<path d="M4.73181 151.808H8.71631V155.793H4.73181V151.808Z" fill="white"/>
<path d="M20.6698 151.808H24.6543V155.793H20.6698V151.808Z" fill="white"/>
<path d="M24.6543 151.808H28.6388V155.793H24.6543V151.808Z" fill="white"/>
<path d="M28.6388 151.808H32.6233V155.793H28.6388V151.808Z" fill="white"/>
<path d="M32.6233 151.808H36.6078V155.793H32.6233V151.808Z" fill="white"/>
<path d="M40.5923 151.808H44.5768V155.793H40.5923V151.808Z" fill="white"/>
<path d="M44.5768 151.808H48.5613V155.793H44.5768V151.808Z" fill="white"/>
<path d="M52.5458 151.808H56.5303V155.793H52.5458V151.808Z" fill="white"/>
<path d="M56.5303 151.808H60.5148V155.793H56.5303V151.808Z" fill="white"/>
<path d="M68.4838 151.808H72.4683V155.793H68.4838V151.808Z" fill="white"/>
<path d="M72.4683 151.808H76.4528V155.793H72.4683V151.808Z" fill="white"/>
<path d="M76.4528 151.808H80.4373V155.793H76.4528V151.808Z" fill="white"/>
<path d="M92.3908 151.808H96.3753V155.793H92.3908V151.808Z" fill="white"/>
<path d="M108.329 151.808H112.313V155.793H108.329V151.808Z" fill="white"/>
<path d="M112.313 151.808H116.298V155.793H112.313V151.808Z" fill="white"/>
<path d="M128.251 151.808H132.236V155.793H128.251V151.808Z" fill="white"/>
<path d="M132.236 151.808H136.22V155.793H132.236V151.808Z" fill="white"/>
<path d="M136.22 151.808H140.205V155.793H136.22V151.808Z" fill="white"/>
<path d="M144.189 151.808H148.174V155.793H144.189V151.808Z" fill="white"/>
<path d="M152.158 151.808H156.143V155.793H152.158V151.808Z" fill="white"/>
<path d="M164.112 151.808H168.096V155.793H164.112V151.808Z" fill="white"/>
<path d="M176.065 151.808H180.05V155.793H176.065V151.808Z" fill="white"/>
<path d="M192.003 151.808H195.988V155.793H192.003V151.808Z" fill="white"/>
<path d="M4.73181 155.793H8.71631V159.777H4.73181V155.793Z" fill="white"/>
<path d="M8.71631 155.793H12.7008V159.777H8.71631V155.793Z" fill="white"/>
<path d="M12.7008 155.793H16.6853V159.777H12.7008V155.793Z" fill="white"/>
<path d="M36.6078 155.793H40.5923V159.777H36.6078V155.793Z" fill="white"/>
<path d="M44.5768 155.793H48.5613V159.777H44.5768V155.793Z" fill="white"/>
<path d="M48.5613 155.793H52.5458V159.777H48.5613V155.793Z" fill="white"/>
<path d="M56.5303 155.793H60.5148V159.777H56.5303V155.793Z" fill="white"/>
<path d="M64.4993 155.793H68.4838V159.777H64.4993V155.793Z" fill="white"/>
<path d="M68.4838 155.793H72.4683V159.777H68.4838V155.793Z" fill="white"/>
<path d="M92.3908 155.793H96.3753V159.777H92.3908V155.793Z" fill="white"/>
<path d="M96.3753 155.793H100.36V159.777H96.3753V155.793Z" fill="white"/>
<path d="M100.36 155.793H104.344V159.777H100.36V155.793Z" fill="white"/>
<path d="M108.329 155.793H112.313V159.777H108.329V155.793Z" fill="white"/>
<path d="M148.174 155.793H152.158V159.777H148.174V155.793Z" fill="white"/>
<path d="M156.143 155.793H160.127V159.777H156.143V155.793Z" fill="white"/>
<path d="M168.096 155.793H172.081V159.777H168.096V155.793Z" fill="white"/>
<path d="M172.081 155.793H176.065V159.777H172.081V155.793Z" fill="white"/>
<path d="M176.065 155.793H180.05V159.777H176.065V155.793Z" fill="white"/>
<path d="M188.019 155.793H192.003V159.777H188.019V155.793Z" fill="white"/>
<path d="M192.003 155.793H195.988V159.777H192.003V155.793Z" fill="white"/>
<path d="M0.747314 159.777H4.73181V163.762H0.747314V159.777Z" fill="white"/>
<path d="M4.73181 159.777H8.71631V163.762H4.73181V159.777Z" fill="white"/>
<path d="M8.71631 159.777H12.7008V163.762H8.71631V159.777Z" fill="white"/>
<path d="M24.6543 159.777H28.6388V163.762H24.6543V159.777Z" fill="white"/>
<path d="M28.6388 159.777H32.6233V163.762H28.6388V159.777Z" fill="white"/>
<path d="M32.6233 159.777H36.6078V163.762H32.6233V159.777Z" fill="white"/>
<path d="M48.5613 159.777H52.5458V163.762H48.5613V159.777Z" fill="white"/>
<path d="M52.5458 159.777H56.5303V163.762H52.5458V159.777Z" fill="white"/>
<path d="M56.5303 159.777H60.5148V163.762H56.5303V159.777Z" fill="white"/>
<path d="M64.4993 159.777H68.4838V163.762H64.4993V159.777Z" fill="white"/>
<path d="M72.4683 159.777H76.4528V163.762H72.4683V159.777Z" fill="white"/>
<path d="M80.4373 159.777H84.4218V163.762H80.4373V159.777Z" fill="white"/>
<path d="M88.4063 159.777H92.3908V163.762H88.4063V159.777Z" fill="white"/>
<path d="M92.3908 159.777H96.3753V163.762H92.3908V159.777Z" fill="white"/>
<path d="M96.3753 159.777H100.36V163.762H96.3753V159.777Z" fill="white"/>
<path d="M100.36 159.777H104.344V163.762H100.36V159.777Z" fill="white"/>
<path d="M104.344 159.777H108.329V163.762H104.344V159.777Z" fill="white"/>
<path d="M108.329 159.777H112.313V163.762H108.329V159.777Z" fill="white"/>
<path d="M116.298 159.777H120.282V163.762H116.298V159.777Z" fill="white"/>
<path d="M120.282 159.777H124.267V163.762H120.282V159.777Z" fill="white"/>
<path d="M128.251 159.777H132.236V163.762H128.251V159.777Z" fill="white"/>
<path d="M140.205 159.777H144.189V163.762H140.205V159.777Z" fill="white"/>
<path d="M144.189 159.777H148.174V163.762H144.189V159.777Z" fill="white"/>
<path d="M156.143 159.777H160.127V163.762H156.143V159.777Z" fill="white"/>
<path d="M160.127 159.777H164.112V163.762H160.127V159.777Z" fill="white"/>
<path d="M164.112 159.777H168.096V163.762H164.112V159.777Z" fill="white"/>
<path d="M168.096 159.777H172.081V163.762H168.096V159.777Z" fill="white"/>
<path d="M172.081 159.777H176.065V163.762H172.081V159.777Z" fill="white"/>
<path d="M176.065 159.777H180.05V163.762H176.065V159.777Z" fill="white"/>
<path d="M180.05 159.777H184.034V163.762H180.05V159.777Z" fill="white"/>
<path d="M184.034 159.777H188.019V163.762H184.034V159.777Z" fill="white"/>
<path d="M32.6233 163.762H36.6078V167.746H32.6233V163.762Z" fill="white"/>
<path d="M36.6078 163.762H40.5923V167.746H36.6078V163.762Z" fill="white"/>
<path d="M40.5923 163.762H44.5768V167.746H40.5923V163.762Z" fill="white"/>
<path d="M44.5768 163.762H48.5613V167.746H44.5768V163.762Z" fill="white"/>
<path d="M52.5458 163.762H56.5303V167.746H52.5458V163.762Z" fill="white"/>
<path d="M56.5303 163.762H60.5148V167.746H56.5303V163.762Z" fill="white"/>
<path d="M64.4993 163.762H68.4838V167.746H64.4993V163.762Z" fill="white"/>
<path d="M68.4838 163.762H72.4683V167.746H68.4838V163.762Z" fill="white"/>
<path d="M76.4528 163.762H80.4373V167.746H76.4528V163.762Z" fill="white"/>
<path d="M80.4373 163.762H84.4218V167.746H80.4373V163.762Z" fill="white"/>
<path d="M88.4063 163.762H92.3908V167.746H88.4063V163.762Z" fill="white"/>
<path d="M104.344 163.762H108.329V167.746H104.344V163.762Z" fill="white"/>
<path d="M108.329 163.762H112.313V167.746H108.329V163.762Z" fill="white"/>
<path d="M112.313 163.762H116.298V167.746H112.313V163.762Z" fill="white"/>
<path d="M116.298 163.762H120.282V167.746H116.298V163.762Z" fill="white"/>
<path d="M128.251 163.762H132.236V167.746H128.251V163.762Z" fill="white"/>
<path d="M132.236 163.762H136.22V167.746H132.236V163.762Z" fill="white"/>
<path d="M136.22 163.762H140.205V167.746H136.22V163.762Z" fill="white"/>
<path d="M140.205 163.762H144.189V167.746H140.205V163.762Z" fill="white"/>
<path d="M144.189 163.762H148.174V167.746H144.189V163.762Z" fill="white"/>
<path d="M156.143 163.762H160.127V167.746H156.143V163.762Z" fill="white"/>
<path d="M160.127 163.762H164.112V167.746H160.127V163.762Z" fill="white"/>
<path d="M176.065 163.762H180.05V167.746H176.065V163.762Z" fill="white"/>
<path d="M180.05 163.762H184.034V167.746H180.05V163.762Z" fill="white"/>
<path d="M192.003 163.762H195.988V167.746H192.003V163.762Z" fill="white"/>
<path d="M0.747314 167.746H4.73181V171.731H0.747314V167.746Z" fill="white"/>
<path d="M4.73181 167.746H8.71631V171.731H4.73181V167.746Z" fill="white"/>
<path d="M8.71631 167.746H12.7008V171.731H8.71631V167.746Z" fill="white"/>
<path d="M12.7008 167.746H16.6853V171.731H12.7008V167.746Z" fill="white"/>
<path d="M16.6853 167.746H20.6698V171.731H16.6853V167.746Z" fill="white"/>
<path d="M20.6698 167.746H24.6543V171.731H20.6698V167.746Z" fill="white"/>
<path d="M24.6543 167.746H28.6388V171.731H24.6543V167.746Z" fill="white"/>
<path d="M32.6233 167.746H36.6078V171.731H32.6233V167.746Z" fill="white"/>
<path d="M36.6078 167.746H40.5923V171.731H36.6078V167.746Z" fill="white"/>
<path d="M40.5923 167.746H44.5768V171.731H40.5923V167.746Z" fill="white"/>
<path d="M56.5303 167.746H60.5148V171.731H56.5303V167.746Z" fill="white"/>
<path d="M60.5148 167.746H64.4993V171.731H60.5148V167.746Z" fill="white"/>
<path d="M72.4683 167.746H76.4528V171.731H72.4683V167.746Z" fill="white"/>
<path d="M84.4218 167.746H88.4063V171.731H84.4218V167.746Z" fill="white"/>
<path d="M88.4063 167.746H92.3908V171.731H88.4063V167.746Z" fill="white"/>
<path d="M96.3753 167.746H100.36V171.731H96.3753V167.746Z" fill="white"/>
<path d="M104.344 167.746H108.329V171.731H104.344V167.746Z" fill="white"/>
<path d="M108.329 167.746H112.313V171.731H108.329V167.746Z" fill="white"/>
<path d="M112.313 167.746H116.298V171.731H112.313V167.746Z" fill="white"/>
<path d="M116.298 167.746H120.282V171.731H116.298V167.746Z" fill="white"/>
<path d="M120.282 167.746H124.267V171.731H120.282V167.746Z" fill="white"/>
<path d="M124.267 167.746H128.251V171.731H124.267V167.746Z" fill="white"/>
<path d="M128.251 167.746H132.236V171.731H128.251V167.746Z" fill="white"/>
<path d="M136.22 167.746H140.205V171.731H136.22V167.746Z" fill="white"/>
<path d="M144.189 167.746H148.174V171.731H144.189V167.746Z" fill="white"/>
<path d="M148.174 167.746H152.158V171.731H148.174V167.746Z" fill="white"/>
<path d="M160.127 167.746H164.112V171.731H160.127V167.746Z" fill="white"/>
<path d="M168.096 167.746H172.081V171.731H168.096V167.746Z" fill="white"/>
<path d="M176.065 167.746H180.05V171.731H176.065V167.746Z" fill="white"/>
<path d="M180.05 167.746H184.034V171.731H180.05V167.746Z" fill="white"/>
<path d="M184.034 167.746H188.019V171.731H184.034V167.746Z" fill="white"/>
<path d="M192.003 167.746H195.988V171.731H192.003V167.746Z" fill="white"/>
<path d="M0.747314 171.731H4.73181V175.715H0.747314V171.731Z" fill="white"/>
<path d="M24.6543 171.731H28.6388V175.715H24.6543V171.731Z" fill="white"/>
<path d="M32.6233 171.731H36.6078V175.715H32.6233V171.731Z" fill="white"/>
<path d="M48.5613 171.731H52.5458V175.715H48.5613V171.731Z" fill="white"/>
<path d="M56.5303 171.731H60.5148V175.715H56.5303V171.731Z" fill="white"/>
<path d="M60.5148 171.731H64.4993V175.715H60.5148V171.731Z" fill="white"/>
<path d="M68.4838 171.731H72.4683V175.715H68.4838V171.731Z" fill="white"/>
<path d="M80.4373 171.731H84.4218V175.715H80.4373V171.731Z" fill="white"/>
<path d="M84.4218 171.731H88.4063V175.715H84.4218V171.731Z" fill="white"/>
<path d="M88.4063 171.731H92.3908V175.715H88.4063V171.731Z" fill="white"/>
<path d="M104.344 171.731H108.329V175.715H104.344V171.731Z" fill="white"/>
<path d="M108.329 171.731H112.313V175.715H108.329V171.731Z" fill="white"/>
<path d="M116.298 171.731H120.282V175.715H116.298V171.731Z" fill="white"/>
<path d="M120.282 171.731H124.267V175.715H120.282V171.731Z" fill="white"/>
<path d="M128.251 171.731H132.236V175.715H128.251V171.731Z" fill="white"/>
<path d="M140.205 171.731H144.189V175.715H140.205V171.731Z" fill="white"/>
<path d="M144.189 171.731H148.174V175.715H144.189V171.731Z" fill="white"/>
<path d="M148.174 171.731H152.158V175.715H148.174V171.731Z" fill="white"/>
<path d="M152.158 171.731H156.143V175.715H152.158V171.731Z" fill="white"/>
<path d="M160.127 171.731H164.112V175.715H160.127V171.731Z" fill="white"/>
<path d="M176.065 171.731H180.05V175.715H176.065V171.731Z" fill="white"/>
<path d="M180.05 171.731H184.034V175.715H180.05V171.731Z" fill="white"/>
<path d="M192.003 171.731H195.988V175.715H192.003V171.731Z" fill="white"/>
<path d="M0.747314 175.715H4.73181V179.7H0.747314V175.715Z" fill="white"/>
<path d="M8.71631 175.715H12.7008V179.7H8.71631V175.715Z" fill="white"/>
<path d="M12.7008 175.715H16.6853V179.7H12.7008V175.715Z" fill="white"/>
<path d="M16.6853 175.715H20.6698V179.7H16.6853V175.715Z" fill="white"/>
<path d="M24.6543 175.715H28.6388V179.7H24.6543V175.715Z" fill="white"/>
<path d="M36.6078 175.715H40.5923V179.7H36.6078V175.715Z" fill="white"/>
<path d="M44.5768 175.715H48.5613V179.7H44.5768V175.715Z" fill="white"/>
<path d="M60.5148 175.715H64.4993V179.7H60.5148V175.715Z" fill="white"/>
<path d="M64.4993 175.715H68.4838V179.7H64.4993V175.715Z" fill="white"/>
<path d="M68.4838 175.715H72.4683V179.7H68.4838V175.715Z" fill="white"/>
<path d="M88.4063 175.715H92.3908V179.7H88.4063V175.715Z" fill="white"/>
<path d="M92.3908 175.715H96.3753V179.7H92.3908V175.715Z" fill="white"/>
<path d="M96.3753 175.715H100.36V179.7H96.3753V175.715Z" fill="white"/>
<path d="M100.36 175.715H104.344V179.7H100.36V175.715Z" fill="white"/>
<path d="M104.344 175.715H108.329V179.7H104.344V175.715Z" fill="white"/>
<path d="M108.329 175.715H112.313V179.7H108.329V175.715Z" fill="white"/>
<path d="M112.313 175.715H116.298V179.7H112.313V175.715Z" fill="white"/>
<path d="M116.298 175.715H120.282V179.7H116.298V175.715Z" fill="white"/>
<path d="M128.251 175.715H132.236V179.7H128.251V175.715Z" fill="white"/>
<path d="M144.189 175.715H148.174V179.7H144.189V175.715Z" fill="white"/>
<path d="M156.143 175.715H160.127V179.7H156.143V175.715Z" fill="white"/>
<path d="M160.127 175.715H164.112V179.7H160.127V175.715Z" fill="white"/>
<path d="M164.112 175.715H168.096V179.7H164.112V175.715Z" fill="white"/>
<path d="M168.096 175.715H172.081V179.7H168.096V175.715Z" fill="white"/>
<path d="M172.081 175.715H176.065V179.7H172.081V175.715Z" fill="white"/>
<path d="M176.065 175.715H180.05V179.7H176.065V175.715Z" fill="white"/>
<path d="M0.747314 179.7H4.73181V183.684H0.747314V179.7Z" fill="white"/>
<path d="M8.71631 179.7H12.7008V183.684H8.71631V179.7Z" fill="white"/>
<path d="M12.7008 179.7H16.6853V183.684H12.7008V179.7Z" fill="white"/>
<path d="M16.6853 179.7H20.6698V183.684H16.6853V179.7Z" fill="white"/>
<path d="M24.6543 179.7H28.6388V183.684H24.6543V179.7Z" fill="white"/>
<path d="M36.6078 179.7H40.5923V183.684H36.6078V179.7Z" fill="white"/>
<path d="M40.5923 179.7H44.5768V183.684H40.5923V179.7Z" fill="white"/>
<path d="M44.5768 179.7H48.5613V183.684H44.5768V179.7Z" fill="white"/>
<path d="M48.5613 179.7H52.5458V183.684H48.5613V179.7Z" fill="white"/>
<path d="M56.5303 179.7H60.5148V183.684H56.5303V179.7Z" fill="white"/>
<path d="M64.4993 179.7H68.4838V183.684H64.4993V179.7Z" fill="white"/>
<path d="M72.4683 179.7H76.4528V183.684H72.4683V179.7Z" fill="white"/>
<path d="M80.4373 179.7H84.4218V183.684H80.4373V179.7Z" fill="white"/>
<path d="M84.4218 179.7H88.4063V183.684H84.4218V179.7Z" fill="white"/>
<path d="M96.3753 179.7H100.36V183.684H96.3753V179.7Z" fill="white"/>
<path d="M104.344 179.7H108.329V183.684H104.344V179.7Z" fill="white"/>
<path d="M108.329 179.7H112.313V183.684H108.329V179.7Z" fill="white"/>
<path d="M112.313 179.7H116.298V183.684H112.313V179.7Z" fill="white"/>
<path d="M116.298 179.7H120.282V183.684H116.298V179.7Z" fill="white"/>
<path d="M120.282 179.7H124.267V183.684H120.282V179.7Z" fill="white"/>
<path d="M124.267 179.7H128.251V183.684H124.267V179.7Z" fill="white"/>
<path d="M140.205 179.7H144.189V183.684H140.205V179.7Z" fill="white"/>
<path d="M144.189 179.7H148.174V183.684H144.189V179.7Z" fill="white"/>
<path d="M148.174 179.7H152.158V183.684H148.174V179.7Z" fill="white"/>
<path d="M156.143 179.7H160.127V183.684H156.143V179.7Z" fill="white"/>
<path d="M176.065 179.7H180.05V183.684H176.065V179.7Z" fill="white"/>
<path d="M192.003 179.7H195.988V183.684H192.003V179.7Z" fill="white"/>
<path d="M0.747314 183.684H4.73181V187.669H0.747314V183.684Z" fill="white"/>
<path d="M8.71631 183.684H12.7008V187.669H8.71631V183.684Z" fill="white"/>
<path d="M12.7008 183.684H16.6853V187.669H12.7008V183.684Z" fill="white"/>
<path d="M16.6853 183.684H20.6698V187.669H16.6853V183.684Z" fill="white"/>
<path d="M24.6543 183.684H28.6388V187.669H24.6543V183.684Z" fill="white"/>
<path d="M32.6233 183.684H36.6078V187.669H32.6233V183.684Z" fill="white"/>
<path d="M44.5768 183.684H48.5613V187.669H44.5768V183.684Z" fill="white"/>
<path d="M48.5613 183.684H52.5458V187.669H48.5613V183.684Z" fill="white"/>
<path d="M56.5303 183.684H60.5148V187.669H56.5303V183.684Z" fill="white"/>
<path d="M60.5148 183.684H64.4993V187.669H60.5148V183.684Z" fill="white"/>
<path d="M64.4993 183.684H68.4838V187.669H64.4993V183.684Z" fill="white"/>
<path d="M68.4838 183.684H72.4683V187.669H68.4838V183.684Z" fill="white"/>
<path d="M76.4528 183.684H80.4373V187.669H76.4528V183.684Z" fill="white"/>
<path d="M80.4373 183.684H84.4218V187.669H80.4373V183.684Z" fill="white"/>
<path d="M92.3908 183.684H96.3753V187.669H92.3908V183.684Z" fill="white"/>
<path d="M104.344 183.684H108.329V187.669H104.344V183.684Z" fill="white"/>
<path d="M116.298 183.684H120.282V187.669H116.298V183.684Z" fill="white"/>
<path d="M124.267 183.684H128.251V187.669H124.267V183.684Z" fill="white"/>
<path d="M132.236 183.684H136.22V187.669H132.236V183.684Z" fill="white"/>
<path d="M148.174 183.684H152.158V187.669H148.174V183.684Z" fill="white"/>
<path d="M160.127 183.684H164.112V187.669H160.127V183.684Z" fill="white"/>
<path d="M164.112 183.684H168.096V187.669H164.112V183.684Z" fill="white"/>
<path d="M176.065 183.684H180.05V187.669H176.065V183.684Z" fill="white"/>
<path d="M180.05 183.684H184.034V187.669H180.05V183.684Z" fill="white"/>
<path d="M184.034 183.684H188.019V187.669H184.034V183.684Z" fill="white"/>
<path d="M188.019 183.684H192.003V187.669H188.019V183.684Z" fill="white"/>
<path d="M192.003 183.684H195.988V187.669H192.003V183.684Z" fill="white"/>
<path d="M0.747314 187.669H4.73181V191.653H0.747314V187.669Z" fill="white"/>
<path d="M24.6543 187.669H28.6388V191.653H24.6543V187.669Z" fill="white"/>
<path d="M36.6078 187.669H40.5923V191.653H36.6078V187.669Z" fill="white"/>
<path d="M44.5768 187.669H48.5613V191.653H44.5768V187.669Z" fill="white"/>
<path d="M68.4838 187.669H72.4683V191.653H68.4838V187.669Z" fill="white"/>
<path d="M92.3908 187.669H96.3753V191.653H92.3908V187.669Z" fill="white"/>
<path d="M100.36 187.669H104.344V191.653H100.36V187.669Z" fill="white"/>
<path d="M108.329 187.669H112.313V191.653H108.329V187.669Z" fill="white"/>
<path d="M112.313 187.669H116.298V191.653H112.313V187.669Z" fill="white"/>
<path d="M128.251 187.669H132.236V191.653H128.251V187.669Z" fill="white"/>
<path d="M144.189 187.669H148.174V191.653H144.189V187.669Z" fill="white"/>
<path d="M148.174 187.669H152.158V191.653H148.174V187.669Z" fill="white"/>
<path d="M152.158 187.669H156.143V191.653H152.158V187.669Z" fill="white"/>
<path d="M160.127 187.669H164.112V191.653H160.127V187.669Z" fill="white"/>
<path d="M164.112 187.669H168.096V191.653H164.112V187.669Z" fill="white"/>
<path d="M180.05 187.669H184.034V191.653H180.05V187.669Z" fill="white"/>
<path d="M0.747314 191.653H4.73181V195.638H0.747314V191.653Z" fill="white"/>
<path d="M4.73181 191.653H8.71631V195.638H4.73181V191.653Z" fill="white"/>
<path d="M8.71631 191.653H12.7008V195.638H8.71631V191.653Z" fill="white"/>
<path d="M12.7008 191.653H16.6853V195.638H12.7008V191.653Z" fill="white"/>
<path d="M16.6853 191.653H20.6698V195.638H16.6853V191.653Z" fill="white"/>
<path d="M20.6698 191.653H24.6543V195.638H20.6698V191.653Z" fill="white"/>
<path d="M24.6543 191.653H28.6388V195.638H24.6543V191.653Z" fill="white"/>
<path d="M44.5768 191.653H48.5613V195.638H44.5768V191.653Z" fill="white"/>
<path d="M48.5613 191.653H52.5458V195.638H48.5613V191.653Z" fill="white"/>
<path d="M60.5148 191.653H64.4993V195.638H60.5148V191.653Z" fill="white"/>
<path d="M68.4838 191.653H72.4683V195.638H68.4838V191.653Z" fill="white"/>
<path d="M80.4373 191.653H84.4218V195.638H80.4373V191.653Z" fill="white"/>
<path d="M88.4063 191.653H92.3908V195.638H88.4063V191.653Z" fill="white"/>
<path d="M92.3908 191.653H96.3753V195.638H92.3908V191.653Z" fill="white"/>
<path d="M100.36 191.653H104.344V195.638H100.36V191.653Z" fill="white"/>
<path d="M120.282 191.653H124.267V195.638H120.282V191.653Z" fill="white"/>
<path d="M124.267 191.653H128.251V195.638H124.267V191.653Z" fill="white"/>
<path d="M128.251 191.653H132.236V195.638H128.251V191.653Z" fill="white"/>
<path d="M132.236 191.653H136.22V195.638H132.236V191.653Z" fill="white"/>
<path d="M136.22 191.653H140.205V195.638H136.22V191.653Z" fill="white"/>
<path d="M140.205 191.653H144.189V195.638H140.205V191.653Z" fill="white"/>
<path d="M144.189 191.653H148.174V195.638H144.189V191.653Z" fill="white"/>
<path d="M152.158 191.653H156.143V195.638H152.158V191.653Z" fill="white"/>
<path d="M160.127 191.653H164.112V195.638H160.127V191.653Z" fill="white"/>
<path d="M164.112 191.653H168.096V195.638H164.112V191.653Z" fill="white"/>
<path d="M172.081 191.653H176.065V195.638H172.081V191.653Z" fill="white"/>
<path d="M176.065 191.653H180.05V195.638H176.065V191.653Z" fill="white"/>
<path d="M180.05 191.653H184.034V195.638H180.05V191.653Z" fill="white"/>
<path d="M192.003 191.653H195.988V195.638H192.003V191.653Z" fill="white"/>
</svg>
