<svg width="512" height="512" viewBox="0 0 512 512" fill="none" xmlns="http://www.w3.org/2000/svg">
<rect width="512" height="512" rx="114.33" fill="url(#paint0_linear_428_4347)"/>
<path fill-rule="evenodd" clip-rule="evenodd" d="M218.683 232.874C218.687 232.875 218.691 232.875 218.694 232.875C218.674 232.874 218.654 232.872 218.636 232.869C218.651 232.872 218.667 232.873 218.683 232.874Z" fill="white"/>
<path fill-rule="evenodd" clip-rule="evenodd" d="M434.689 401.077H397.054L387.917 314.283L398.029 329.448L400.534 341.991C401.743 348.037 405.544 353.182 410.967 356.125C414.039 357.791 417.414 358.63 420.807 358.63C423.405 358.63 426.014 358.136 428.501 357.143C433.856 355.002 438.101 350.684 440.155 345.291C442.203 339.899 441.901 333.853 439.322 328.689L434.041 318.121C434.022 318.077 433.985 318.053 433.961 318.016C433.948 317.985 433.948 317.954 433.936 317.923L396.919 250.058C396.234 248.799 395.123 247.818 393.797 247.281L377.077 240.593C389.626 230.401 397.671 214.866 397.671 197.48C397.671 188.183 395.222 179.027 390.718 170.834L387.535 138.986C397.468 134.779 403.841 126.518 403.841 117.276C403.841 103.992 390.656 93.1278 374.208 92.6158C367.65 81.2329 355.49 74.0885 342.145 74.0885C328.8 74.0885 316.64 81.2329 310.082 92.6158C293.633 93.1278 280.449 103.992 280.449 117.276C280.449 126.518 286.822 134.779 296.755 138.986L293.572 170.834C289.068 179.027 286.619 188.183 286.619 197.48C286.619 214.866 294.664 230.401 307.219 240.587L290.499 247.275C289.512 247.67 288.642 248.318 287.976 249.151L267.153 275.18L241.994 255.055L235.275 243.857C234.134 241.951 232.678 240.334 231.105 238.86V222.159C231.105 214.126 225.928 207.339 218.765 204.785V178.972H224.935C235.139 178.972 243.444 170.667 243.444 160.463V123.445C243.444 113.241 235.139 104.936 224.935 104.936H200.257C190.052 104.936 181.748 113.241 181.748 123.445V160.463C181.748 170.667 190.052 178.972 200.257 178.972H206.426V204.785C199.263 207.339 194.087 214.126 194.087 222.159V246.837V246.862C192.545 250.533 191.854 254.537 192.353 258.633C193.236 265.772 197.277 271.99 203.44 275.692L215.113 282.695L256.128 318.583C263.02 324.605 273.119 324.734 280.165 318.867L297.409 304.492L287.236 401.077H179.379L186.616 386.603C198.165 382.142 206.414 370.994 206.414 357.89V344.415C213.577 341.861 218.753 335.075 218.753 327.042C218.753 316.837 210.449 308.533 200.244 308.533H89.1916C78.9871 308.533 70.6829 316.837 70.6829 327.042C70.6829 335.075 75.8591 341.861 83.022 344.415V357.89C83.022 370.994 91.2708 382.142 102.82 386.603L110.057 401.077H76.8525C73.4468 401.077 70.6829 403.841 70.6829 407.246V431.925C70.6829 435.33 73.4468 438.094 76.8525 438.094H434.689C438.094 438.094 440.858 435.33 440.858 431.925V407.246C440.858 403.841 438.094 401.077 434.689 401.077ZM200.244 166.632H206.414V117.276H200.244C196.845 117.276 194.075 120.046 194.075 123.445V160.463C194.075 163.862 196.845 166.632 200.244 166.632ZM428.624 340.899C429.463 338.69 429.34 336.308 428.285 334.198L425.218 328.06L411.047 331.601L412.639 339.566C413.126 342.003 414.668 344.082 416.852 345.267C419.037 346.451 421.622 346.599 423.923 345.68C426.113 344.804 427.785 343.101 428.624 340.899ZM419.283 316.819L387.152 257.911L375.911 253.414L384.869 287.458L406.562 319.996L419.283 316.819ZM384.653 401.077L373.61 296.194H310.68L299.643 401.077H384.653ZM322.229 249.274L313.135 283.855H371.16L362.06 249.274C361.814 249.367 361.561 249.428 361.314 249.521C360.08 249.984 358.827 250.415 357.55 250.786C357.063 250.927 356.569 251.032 356.082 251.162C354.904 251.464 353.725 251.767 352.522 251.995C351.918 252.112 351.307 252.18 350.702 252.272L350.439 252.315C349.411 252.48 348.386 252.645 347.34 252.741C346.544 252.815 345.748 252.822 344.946 252.865C344.008 252.914 343.089 253.007 342.145 253.007C341.201 253.007 340.282 252.914 339.344 252.865C338.548 252.822 337.746 252.815 336.95 252.741C335.815 252.63 334.704 252.445 333.588 252.272C332.983 252.18 332.372 252.112 331.768 251.995C330.565 251.767 329.386 251.47 328.208 251.162C327.72 251.039 327.227 250.927 326.739 250.786C325.462 250.415 324.216 249.977 322.976 249.521C322.729 249.434 322.476 249.367 322.229 249.274ZM311.297 104.936C301.265 104.936 292.788 110.588 292.788 117.276C292.788 122.205 297.773 126.919 304.905 128.751C307.86 129.504 309.822 132.305 309.52 135.34L305.775 172.802H378.515L374.764 135.334C374.461 132.299 376.423 129.498 379.378 128.745C386.517 126.919 391.502 122.205 391.502 117.276C391.502 110.588 383.025 104.936 372.993 104.936C372.635 104.936 372.296 104.98 371.956 105.017L370.963 105.109C368.397 105.313 365.867 103.814 364.824 101.389C360.919 92.3011 352.016 86.4277 342.145 86.4277C332.274 86.4277 323.371 92.3011 319.472 101.389C318.423 103.814 315.93 105.263 313.333 105.109L312.34 105.017C311.994 104.98 311.655 104.936 311.297 104.936ZM300.778 185.141C299.581 189.139 298.958 193.297 298.958 197.48C298.958 214.607 309.008 229.396 323.482 236.373C324.889 237.046 326.314 237.644 327.764 238.156L327.967 238.23C337.16 241.445 347.118 241.445 356.31 238.23L356.514 238.156C357.964 237.644 359.395 237.046 360.796 236.373C375.282 229.396 385.332 214.607 385.332 197.48C385.332 193.297 384.709 189.139 383.506 185.141H300.778ZM224.923 117.276H218.753V166.632H224.923C228.322 166.632 231.092 163.862 231.092 160.463V123.445C231.092 120.046 228.322 117.276 224.923 117.276ZM212.583 215.989C215.983 215.989 218.753 218.759 218.753 222.159V232.881C218.735 232.878 218.715 232.877 218.694 232.875C218.674 232.874 218.654 232.872 218.636 232.869C218.488 232.851 218.358 232.783 218.21 232.764C217.871 232.721 217.538 232.783 217.204 232.752C216.131 232.665 215.07 232.653 213.996 232.715C213.46 232.746 212.929 232.746 212.405 232.814C211.134 232.974 209.894 233.27 208.666 233.64C208.141 233.801 207.635 233.967 207.123 234.159C206.889 234.245 206.648 234.3 206.42 234.393V222.159H206.414C206.414 218.759 209.184 215.989 212.583 215.989ZM204.594 257.122C205.001 260.466 206.895 263.378 209.789 265.111L217.803 269.917L229.5 258.22L224.694 250.206C223.886 248.861 222.806 247.756 221.566 246.893C221.536 246.874 221.499 246.862 221.468 246.843C220.437 246.14 219.314 245.665 218.161 245.356C218.05 245.326 217.932 245.301 217.815 245.276C216.705 245.023 215.576 244.924 214.459 245.017C214.373 245.023 214.292 245.036 214.206 245.042C213.059 245.159 211.936 245.455 210.881 245.93C210.794 245.973 210.708 246.029 210.622 246.072C209.567 246.584 208.561 247.244 207.697 248.114C207.29 248.521 206.963 248.99 206.63 249.453C206.358 249.854 206.093 250.286 205.828 250.792C205.803 250.841 205.76 250.872 205.735 250.921C204.773 252.815 204.322 254.944 204.594 257.122ZM264.241 309.292C266.537 311.303 269.911 311.334 272.256 309.384L299.649 286.557L308.366 253.42L296.576 258.134L272.916 287.711C270.787 290.376 266.901 290.802 264.248 288.673L237.712 267.443L227.773 277.383L264.241 309.292ZM83.022 327.042C83.022 330.441 85.7922 333.211 89.1916 333.211H200.244C203.644 333.211 206.414 330.441 206.414 327.042C206.414 323.642 203.644 320.872 200.244 320.872H89.1916C85.7922 320.872 83.022 323.642 83.022 327.042ZM95.3612 345.551V357.89C95.3612 368.094 103.665 376.398 113.87 376.398H175.566C185.77 376.398 194.075 368.094 194.075 357.89V345.551H95.3612ZM165.584 401.077L171.753 388.738H150.888V401.077H165.584ZM138.548 401.077V388.738H117.683L123.852 401.077H138.548ZM83.022 425.755H428.519V413.416H391.502H292.788H169.396H120.04H83.022V425.755Z" fill="white"/>
<path fill-rule="evenodd" clip-rule="evenodd" d="M434.689 401.077H397.054L387.917 314.283L398.029 329.448L400.534 341.991C401.743 348.037 405.544 353.182 410.967 356.125C414.039 357.791 417.414 358.63 420.807 358.63C423.405 358.63 426.014 358.136 428.501 357.143C433.856 355.002 438.101 350.684 440.155 345.291C442.203 339.899 441.901 333.853 439.322 328.689L434.041 318.121C434.022 318.077 433.985 318.053 433.961 318.016C433.948 317.985 433.948 317.954 433.936 317.923L396.919 250.058C396.234 248.799 395.123 247.818 393.797 247.281L377.077 240.593C389.626 230.401 397.671 214.866 397.671 197.48C397.671 188.183 395.222 179.027 390.718 170.834L387.535 138.986C397.468 134.779 403.841 126.518 403.841 117.276C403.841 103.992 390.656 93.1278 374.208 92.6158C367.65 81.2329 355.49 74.0885 342.145 74.0885C328.8 74.0885 316.64 81.2329 310.082 92.6158C293.633 93.1278 280.449 103.992 280.449 117.276C280.449 126.518 286.822 134.779 296.755 138.986L293.572 170.834C289.068 179.027 286.619 188.183 286.619 197.48C286.619 214.866 294.664 230.401 307.219 240.587L290.499 247.275C289.512 247.67 288.642 248.318 287.976 249.151L267.153 275.18L241.994 255.055L235.275 243.857C234.134 241.951 232.678 240.334 231.105 238.86V222.159C231.105 214.126 225.928 207.339 218.765 204.785V178.972H224.935C235.139 178.972 243.444 170.667 243.444 160.463V123.445C243.444 113.241 235.139 104.936 224.935 104.936H200.257C190.052 104.936 181.748 113.241 181.748 123.445V160.463C181.748 170.667 190.052 178.972 200.257 178.972H206.426V204.785C199.263 207.339 194.087 214.126 194.087 222.159V246.837V246.862C192.545 250.533 191.854 254.537 192.353 258.633C193.236 265.772 197.277 271.99 203.44 275.692L215.113 282.695L256.128 318.583C263.02 324.605 273.119 324.734 280.165 318.867L297.409 304.492L287.236 401.077H179.379L186.616 386.603C198.165 382.142 206.414 370.994 206.414 357.89V344.415C213.577 341.861 218.753 335.075 218.753 327.042C218.753 316.837 210.449 308.533 200.244 308.533H89.1916C78.9871 308.533 70.6829 316.837 70.6829 327.042C70.6829 335.075 75.8591 341.861 83.022 344.415V357.89C83.022 370.994 91.2708 382.142 102.82 386.603L110.057 401.077H76.8525C73.4468 401.077 70.6829 403.841 70.6829 407.246V431.925C70.6829 435.33 73.4468 438.094 76.8525 438.094H434.689C438.094 438.094 440.858 435.33 440.858 431.925V407.246C440.858 403.841 438.094 401.077 434.689 401.077ZM200.244 166.632H206.414V117.276H200.244C196.845 117.276 194.075 120.046 194.075 123.445V160.463C194.075 163.862 196.845 166.632 200.244 166.632ZM428.624 340.899C429.463 338.69 429.34 336.308 428.285 334.198L425.218 328.06L411.047 331.601L412.639 339.566C413.126 342.003 414.668 344.082 416.852 345.267C419.037 346.451 421.622 346.599 423.923 345.68C426.113 344.804 427.785 343.101 428.624 340.899ZM419.283 316.819L387.152 257.911L375.911 253.414L384.869 287.458L406.562 319.996L419.283 316.819ZM384.653 401.077L373.61 296.194H310.68L299.643 401.077H384.653ZM322.229 249.274L313.135 283.855H371.16L362.06 249.274C361.814 249.367 361.561 249.428 361.314 249.521C360.08 249.984 358.827 250.415 357.55 250.786C357.063 250.927 356.569 251.032 356.082 251.162C354.904 251.464 353.725 251.767 352.522 251.995C351.918 252.112 351.307 252.18 350.702 252.272L350.439 252.315C349.411 252.48 348.386 252.645 347.34 252.741C346.544 252.815 345.748 252.822 344.946 252.865C344.008 252.914 343.089 253.007 342.145 253.007C341.201 253.007 340.282 252.914 339.344 252.865C338.548 252.822 337.746 252.815 336.95 252.741C335.815 252.63 334.704 252.445 333.588 252.272C332.983 252.18 332.372 252.112 331.768 251.995C330.565 251.767 329.386 251.47 328.208 251.162C327.72 251.039 327.227 250.927 326.739 250.786C325.462 250.415 324.216 249.977 322.976 249.521C322.729 249.434 322.476 249.367 322.229 249.274ZM311.297 104.936C301.265 104.936 292.788 110.588 292.788 117.276C292.788 122.205 297.773 126.919 304.905 128.751C307.86 129.504 309.822 132.305 309.52 135.34L305.775 172.802H378.515L374.764 135.334C374.461 132.299 376.423 129.498 379.378 128.745C386.517 126.919 391.502 122.205 391.502 117.276C391.502 110.588 383.025 104.936 372.993 104.936C372.635 104.936 372.296 104.98 371.956 105.017L370.963 105.109C368.397 105.313 365.867 103.814 364.824 101.389C360.919 92.3011 352.016 86.4277 342.145 86.4277C332.274 86.4277 323.371 92.3011 319.472 101.389C318.423 103.814 315.93 105.263 313.333 105.109L312.34 105.017C311.994 104.98 311.655 104.936 311.297 104.936ZM300.778 185.141C299.581 189.139 298.958 193.297 298.958 197.48C298.958 214.607 309.008 229.396 323.482 236.373C324.889 237.046 326.314 237.644 327.764 238.156L327.967 238.23C337.16 241.445 347.118 241.445 356.31 238.23L356.514 238.156C357.964 237.644 359.395 237.046 360.796 236.373C375.282 229.396 385.332 214.607 385.332 197.48C385.332 193.297 384.709 189.139 383.506 185.141H300.778ZM224.923 117.276H218.753V166.632H224.923C228.322 166.632 231.092 163.862 231.092 160.463V123.445C231.092 120.046 228.322 117.276 224.923 117.276ZM212.583 215.989C215.983 215.989 218.753 218.759 218.753 222.159V232.881C218.735 232.878 218.715 232.877 218.694 232.875C218.674 232.874 218.654 232.872 218.636 232.869C218.488 232.851 218.358 232.783 218.21 232.764C217.871 232.721 217.538 232.783 217.204 232.752C216.131 232.665 215.07 232.653 213.996 232.715C213.46 232.746 212.929 232.746 212.405 232.814C211.134 232.974 209.894 233.27 208.666 233.64C208.141 233.801 207.635 233.967 207.123 234.159C206.889 234.245 206.648 234.3 206.42 234.393V222.159H206.414C206.414 218.759 209.184 215.989 212.583 215.989ZM204.594 257.122C205.001 260.466 206.895 263.378 209.789 265.111L217.803 269.917L229.5 258.22L224.694 250.206C223.886 248.861 222.806 247.756 221.566 246.893C221.536 246.874 221.499 246.862 221.468 246.843C220.437 246.14 219.314 245.665 218.161 245.356C218.05 245.326 217.932 245.301 217.815 245.276C216.705 245.023 215.576 244.924 214.459 245.017C214.373 245.023 214.292 245.036 214.206 245.042C213.059 245.159 211.936 245.455 210.881 245.93C210.794 245.973 210.708 246.029 210.622 246.072C209.567 246.584 208.561 247.244 207.697 248.114C207.29 248.521 206.963 248.99 206.63 249.453C206.358 249.854 206.093 250.286 205.828 250.792C205.803 250.841 205.76 250.872 205.735 250.921C204.773 252.815 204.322 254.944 204.594 257.122ZM264.241 309.292C266.537 311.303 269.911 311.334 272.256 309.384L299.649 286.557L308.366 253.42L296.576 258.134L272.916 287.711C270.787 290.376 266.901 290.802 264.248 288.673L237.712 267.443L227.773 277.383L264.241 309.292ZM83.022 327.042C83.022 330.441 85.7922 333.211 89.1916 333.211H200.244C203.644 333.211 206.414 330.441 206.414 327.042C206.414 323.642 203.644 320.872 200.244 320.872H89.1916C85.7922 320.872 83.022 323.642 83.022 327.042ZM95.3612 345.551V357.89C95.3612 368.094 103.665 376.398 113.87 376.398H175.566C185.77 376.398 194.075 368.094 194.075 357.89V345.551H95.3612ZM165.584 401.077L171.753 388.738H150.888V401.077H165.584ZM138.548 401.077V388.738H117.683L123.852 401.077H138.548ZM83.022 425.755H428.519V413.416H391.502H292.788H169.396H120.04H83.022V425.755Z" fill="white"/>
<path d="M360.654 320.872H323.636C320.231 320.872 317.467 323.636 317.467 327.042V345.55C317.467 359.161 328.535 370.229 342.145 370.229C355.755 370.229 366.823 359.161 366.823 345.55V327.042C366.823 323.636 364.059 320.872 360.654 320.872ZM354.484 345.55C354.484 352.356 348.95 357.89 342.145 357.89C335.34 357.89 329.806 352.356 329.806 345.55V333.211H354.484V345.55Z" fill="white"/>
<g clip-path="url(#clip0_428_4347)">
<path fill-rule="evenodd" clip-rule="evenodd" d="M186.616 386.603C198.165 382.142 206.414 370.994 206.414 357.89V344.415C213.577 341.861 218.753 335.075 218.753 327.042C218.753 316.837 210.449 308.533 200.244 308.533H89.1916C78.9871 308.533 70.6829 316.837 70.6829 327.042C70.6829 335.075 75.8591 341.861 83.022 344.415V357.89C83.022 370.994 91.2708 382.142 102.82 386.603C108.086 388.637 111.171 388.417 117.683 388.738H138.548H150.888H171.753C177.614 388.468 180.964 388.417 186.616 386.603ZM83.022 327.042C83.022 330.441 85.7922 333.211 89.1916 333.211H200.244C203.644 333.211 206.414 330.441 206.414 327.042C206.414 323.642 203.644 320.872 200.244 320.872H89.1916C85.7922 320.872 83.022 323.642 83.022 327.042ZM95.3612 345.551V357.89C95.3612 368.094 103.665 376.398 113.87 376.398H175.566C185.77 376.398 194.075 368.094 194.075 357.89V345.551H95.3612Z" fill="white"/>
<path d="M150.888 259.176H138.548V290.024H150.888V259.176Z" fill="white"/>
<path d="M181.736 271.515H169.396V296.194H181.736V271.515Z" fill="white"/>
<path d="M120.04 271.515H107.7V296.194H120.04V271.515Z" fill="white"/>
<path d="M150.888 234.498H138.548V246.837H150.888V234.498Z" fill="white"/>
<path d="M120.04 246.837H107.7V259.176H120.04V246.837Z" fill="white"/>
<path d="M181.736 246.837H169.396V259.176H181.736V246.837Z" fill="white"/>
</g>
<defs>
<linearGradient id="paint0_linear_428_4347" x1="256" y1="0" x2="256" y2="512" gradientUnits="userSpaceOnUse">
<stop stop-color="#EB8E33"/>
<stop offset="1" stop-color="#D56D19"/>
</linearGradient>
<clipPath id="clip0_428_4347">
<rect width="370.817" height="370.817" fill="white" transform="translate(70.6829 70.6829)"/>
</clipPath>
</defs>
</svg>
