<svg width="128" height="128" viewBox="0 0 128 128" fill="none" xmlns="http://www.w3.org/2000/svg">
<g filter="url(#filter0_d_261_1361)">
<rect x="12.5" y="12.5" width="103" height="103" rx="23" fill="url(#paint0_linear_261_1361)"/>
</g>
<path fill-rule="evenodd" clip-rule="evenodd" d="M56.031 59.0304C56.0318 59.0305 56.0326 59.0305 56.0334 59.0306C56.0291 59.0303 56.0249 59.0299 56.021 59.0293C56.0242 59.0298 56.0276 59.0301 56.031 59.0304Z" fill="white"/>
<path fill-rule="evenodd" clip-rule="evenodd" d="M101.685 94.5813H93.7311L91.7998 76.2367L93.9371 79.442L94.4665 82.093C94.7221 83.3709 95.5253 84.4584 96.6715 85.0804C97.3209 85.4325 98.0342 85.6098 98.7514 85.6098C99.3004 85.6098 99.852 85.5055 100.377 85.2956C101.509 84.8431 102.406 83.9303 102.841 82.7906C103.274 81.6509 103.21 80.373 102.665 79.2816L101.548 77.0478C101.545 77.0387 101.537 77.0335 101.532 77.0257C101.529 77.0191 101.529 77.0126 101.526 77.0061L93.7024 62.6622C93.5576 62.3962 93.3229 62.1889 93.0425 62.0754L89.5087 60.6619C92.161 58.5077 93.8615 55.2243 93.8615 51.5496C93.8615 49.5845 93.3438 47.6494 92.3919 45.9177L91.719 39.1865C93.8184 38.2972 95.1654 36.5511 95.1654 34.5977C95.1654 31.7903 92.3788 29.4939 88.9024 29.3857C87.5162 26.9798 84.9461 25.4698 82.1255 25.4698C79.305 25.4698 76.7349 26.9798 75.3487 29.3857C71.8723 29.4939 69.0856 31.7903 69.0856 34.5977C69.0856 36.5511 70.4327 38.2972 72.5321 39.1865L71.8592 45.9177C70.9073 47.6494 70.3896 49.5845 70.3896 51.5496C70.3896 55.2243 72.09 58.5077 74.7437 60.6606L71.2098 62.0741C71.0012 62.1576 70.8173 62.2945 70.6765 62.4705L66.2755 67.9721L60.9579 63.7184L59.5378 61.3517C59.2966 60.9488 58.9889 60.6071 58.6563 60.2955V56.7656C58.6563 55.0678 57.5623 53.6334 56.0484 53.0935V47.6376H57.3524C59.5091 47.6376 61.2643 45.8825 61.2643 43.7257V35.9017C61.2643 33.7449 59.5091 31.9898 57.3524 31.9898H52.1364C49.9796 31.9898 48.2244 33.7449 48.2244 35.9017V43.7257C48.2244 45.8825 49.9796 47.6376 52.1364 47.6376H53.4404V53.0935C51.9264 53.6334 50.8324 55.0678 50.8324 56.7656V61.9815V61.9867C50.5064 62.7626 50.3604 63.6089 50.466 64.4748C50.6525 65.9835 51.5066 67.2979 52.8092 68.0803L55.2764 69.5603L63.9453 77.1456C65.4019 78.4183 67.5365 78.4457 69.0257 77.2056L72.6703 74.1673L70.52 94.5813H47.7237L49.2533 91.5221C51.6943 90.5793 53.4378 88.223 53.4378 85.4533V82.6054C54.9517 82.0656 56.0458 80.6312 56.0458 78.9334C56.0458 76.7766 54.2906 75.0214 52.1338 75.0214H28.662C26.5052 75.0214 24.75 76.7766 24.75 78.9334C24.75 80.6312 25.844 82.0656 27.358 82.6054V85.4533C27.358 88.223 29.1014 90.5793 31.5425 91.5221L33.0721 94.5813H26.054C25.3342 94.5813 24.75 95.1655 24.75 95.8853V101.101C24.75 101.821 25.3342 102.405 26.054 102.405H101.685C102.405 102.405 102.989 101.821 102.989 101.101V95.8853C102.989 95.1655 102.405 94.5813 101.685 94.5813ZM52.1338 45.0297H53.4378V34.5977H52.1338C51.4153 34.5977 50.8298 35.1832 50.8298 35.9017V43.7257C50.8298 44.4442 51.4153 45.0297 52.1338 45.0297ZM100.404 81.8622C100.581 81.3953 100.555 80.892 100.332 80.446L99.6838 79.1486L96.6885 79.897L97.0249 81.5805C97.1279 82.0956 97.4539 82.535 97.9156 82.7854C98.3772 83.0357 98.9235 83.067 99.4099 82.8728C99.8728 82.6876 100.226 82.3277 100.404 81.8622ZM98.4293 76.7727L91.6381 64.3222L89.2623 63.3716L91.1557 70.567L95.7405 77.4442L98.4293 76.7727ZM91.11 94.5813L88.7759 72.4134H75.4752L73.1424 94.5813H91.11ZM77.9163 62.4966L75.9942 69.8055H88.2582L86.3348 62.4966C86.2827 62.5162 86.2292 62.5292 86.177 62.5488C85.9162 62.6466 85.6515 62.7378 85.3816 62.8161C85.2786 62.8461 85.1743 62.8682 85.0713 62.8956C84.8222 62.9595 84.5731 63.0234 84.3189 63.0717C84.1911 63.0964 84.062 63.1108 83.9342 63.1303L83.8787 63.1393C83.6613 63.1742 83.4446 63.209 83.2235 63.2294C83.0553 63.2451 82.8871 63.2464 82.7176 63.2555C82.5193 63.266 82.3251 63.2855 82.1255 63.2855C81.926 63.2855 81.7317 63.266 81.5335 63.2555C81.3653 63.2464 81.1958 63.2451 81.0276 63.2294C80.7877 63.206 80.5529 63.1669 80.3169 63.1303C80.1891 63.1108 80.06 63.0964 79.9322 63.0717C79.678 63.0234 79.4289 62.9608 79.1798 62.8956C79.0768 62.8695 78.9725 62.8461 78.8695 62.8161C78.5996 62.7378 78.3362 62.6453 78.0741 62.5488C78.0219 62.5305 77.9684 62.5162 77.9163 62.4966ZM75.6056 31.9898C73.4853 31.9898 71.6936 33.1842 71.6936 34.5977C71.6936 35.6396 72.7473 36.6359 74.2547 37.0232C74.8793 37.1823 75.2939 37.7743 75.23 38.4158L74.4385 46.3337H89.8126L89.0197 38.4145C88.9558 37.773 89.3705 37.1809 89.9951 37.0219C91.5038 36.6359 92.5575 35.6396 92.5575 34.5977C92.5575 33.1842 90.7658 31.9898 88.6455 31.9898C88.5699 31.9898 88.4981 31.9989 88.4264 32.0067L88.2165 32.0263C87.674 32.0693 87.1394 31.7524 86.919 31.24C86.0936 29.3192 84.2119 28.0778 82.1255 28.0778C80.0392 28.0778 78.1575 29.3192 77.3334 31.24C77.1117 31.7524 76.5849 32.0589 76.0359 32.0263L75.826 32.0067C75.7529 31.9989 75.6812 31.9898 75.6056 31.9898ZM73.3823 48.9416C73.1293 49.7866 72.9976 50.6655 72.9976 51.5496C72.9976 55.1695 75.1218 58.2952 78.181 59.77C78.4783 59.9121 78.7795 60.0386 79.0859 60.1468L79.129 60.1625C81.0719 60.8418 83.1766 60.8418 85.1195 60.1625L85.1625 60.1468C85.469 60.0386 85.7715 59.9121 86.0675 59.77C89.1293 58.2952 91.2535 55.1695 91.2535 51.5496C91.2535 50.6655 91.1218 49.7866 90.8675 48.9416H73.3823ZM57.3497 34.5977H56.0458V45.0297H57.3497C58.0682 45.0297 58.6537 44.4442 58.6537 43.7257V35.9017C58.6537 35.1832 58.0682 34.5977 57.3497 34.5977ZM54.7418 55.4616C55.4603 55.4616 56.0458 56.0471 56.0458 56.7656V59.0319C56.0418 59.0313 56.0376 59.0309 56.0334 59.0306C56.0291 59.0303 56.0249 59.0299 56.021 59.0293C55.9897 59.0254 55.9623 59.011 55.931 59.0071C55.8593 58.998 55.7889 59.011 55.7185 59.0045C55.4916 58.9863 55.2673 58.9837 55.0404 58.9967C54.9269 59.0032 54.8148 59.0032 54.7039 59.0176C54.4353 59.0515 54.1732 59.1141 53.9137 59.1923C53.8029 59.2262 53.696 59.2614 53.5877 59.3018C53.5382 59.3201 53.4873 59.3318 53.4391 59.3514V56.7656H53.4378C53.4378 56.0471 54.0233 55.4616 54.7418 55.4616ZM53.0531 64.1553C53.1392 64.862 53.5395 65.4775 54.1511 65.8439L55.8449 66.8598L58.3173 64.3874L57.3015 62.6935C57.1307 62.4092 56.9025 62.1758 56.6404 61.9933C56.6339 61.9894 56.626 61.9867 56.6195 61.9828C56.4017 61.8342 56.1644 61.7338 55.9206 61.6686C55.8971 61.6621 55.8723 61.6568 55.8475 61.6516C55.6128 61.5982 55.3742 61.5773 55.1382 61.5969C55.1199 61.5982 55.103 61.6008 55.0847 61.6021C54.8422 61.6268 54.6048 61.6894 54.3819 61.7898C54.3636 61.799 54.3453 61.8107 54.3271 61.8198C54.1041 61.9281 53.8916 62.0676 53.709 62.2515C53.6229 62.3375 53.5538 62.4366 53.4834 62.5344C53.426 62.6192 53.37 62.7105 53.3139 62.8174C53.3087 62.8278 53.2995 62.8343 53.2943 62.8448C53.0909 63.2451 52.9957 63.695 53.0531 64.1553ZM65.6601 75.1818C66.1452 75.6069 66.8584 75.6134 67.354 75.2014L73.1437 70.3766L74.9862 63.3729L72.4943 64.3691L67.4935 70.6205C67.0436 71.1838 66.2221 71.2738 65.6614 70.8239L60.0529 66.3369L57.9522 68.4376L65.6601 75.1818ZM27.358 78.9334C27.358 79.6519 27.9435 80.2374 28.662 80.2374H52.1338C52.8523 80.2374 53.4378 79.6519 53.4378 78.9334C53.4378 78.2149 52.8523 77.6294 52.1338 77.6294H28.662C27.9435 77.6294 27.358 78.2149 27.358 78.9334ZM29.966 82.8454V85.4533C29.966 87.6101 31.7211 89.3653 33.8779 89.3653H46.9178C49.0746 89.3653 50.8298 87.6101 50.8298 85.4533V82.8454H29.966ZM44.808 94.5813L46.112 91.9733H41.7019V94.5813H44.808ZM39.0939 94.5813V91.9733H34.6838L35.9878 94.5813H39.0939ZM27.358 99.7972H100.381V97.1892H92.5575H71.6936H45.6138H35.1819H27.358V99.7972Z" fill="white"/>
<path fill-rule="evenodd" clip-rule="evenodd" d="M101.685 94.5813H93.7311L91.7998 76.2367L93.9371 79.442L94.4665 82.093C94.7221 83.3709 95.5253 84.4584 96.6715 85.0804C97.3209 85.4325 98.0342 85.6098 98.7514 85.6098C99.3004 85.6098 99.852 85.5055 100.377 85.2956C101.509 84.8431 102.406 83.9303 102.841 82.7906C103.274 81.6509 103.21 80.373 102.665 79.2816L101.548 77.0478C101.545 77.0387 101.537 77.0335 101.532 77.0257C101.529 77.0191 101.529 77.0126 101.526 77.0061L93.7024 62.6622C93.5576 62.3962 93.3229 62.1889 93.0425 62.0754L89.5087 60.6619C92.161 58.5077 93.8615 55.2243 93.8615 51.5496C93.8615 49.5845 93.3438 47.6494 92.3919 45.9177L91.719 39.1865C93.8184 38.2972 95.1654 36.5511 95.1654 34.5977C95.1654 31.7903 92.3788 29.4939 88.9024 29.3857C87.5162 26.9798 84.9461 25.4698 82.1255 25.4698C79.305 25.4698 76.7349 26.9798 75.3487 29.3857C71.8723 29.4939 69.0856 31.7903 69.0856 34.5977C69.0856 36.5511 70.4327 38.2972 72.5321 39.1865L71.8592 45.9177C70.9073 47.6494 70.3896 49.5845 70.3896 51.5496C70.3896 55.2243 72.09 58.5077 74.7437 60.6606L71.2098 62.0741C71.0012 62.1576 70.8173 62.2945 70.6765 62.4705L66.2755 67.9721L60.9579 63.7184L59.5378 61.3517C59.2966 60.9488 58.9889 60.6071 58.6563 60.2955V56.7656C58.6563 55.0678 57.5623 53.6334 56.0484 53.0935V47.6376H57.3524C59.5091 47.6376 61.2643 45.8825 61.2643 43.7257V35.9017C61.2643 33.7449 59.5091 31.9898 57.3524 31.9898H52.1364C49.9796 31.9898 48.2244 33.7449 48.2244 35.9017V43.7257C48.2244 45.8825 49.9796 47.6376 52.1364 47.6376H53.4404V53.0935C51.9264 53.6334 50.8324 55.0678 50.8324 56.7656V61.9815V61.9867C50.5064 62.7626 50.3604 63.6089 50.466 64.4748C50.6525 65.9835 51.5066 67.2979 52.8092 68.0803L55.2764 69.5603L63.9453 77.1456C65.4019 78.4183 67.5365 78.4457 69.0257 77.2056L72.6703 74.1673L70.52 94.5813H47.7237L49.2533 91.5221C51.6943 90.5793 53.4378 88.223 53.4378 85.4533V82.6054C54.9517 82.0656 56.0458 80.6312 56.0458 78.9334C56.0458 76.7766 54.2906 75.0214 52.1338 75.0214H28.662C26.5052 75.0214 24.75 76.7766 24.75 78.9334C24.75 80.6312 25.844 82.0656 27.358 82.6054V85.4533C27.358 88.223 29.1014 90.5793 31.5425 91.5221L33.0721 94.5813H26.054C25.3342 94.5813 24.75 95.1655 24.75 95.8853V101.101C24.75 101.821 25.3342 102.405 26.054 102.405H101.685C102.405 102.405 102.989 101.821 102.989 101.101V95.8853C102.989 95.1655 102.405 94.5813 101.685 94.5813ZM52.1338 45.0297H53.4378V34.5977H52.1338C51.4153 34.5977 50.8298 35.1832 50.8298 35.9017V43.7257C50.8298 44.4442 51.4153 45.0297 52.1338 45.0297ZM100.404 81.8622C100.581 81.3953 100.555 80.892 100.332 80.446L99.6838 79.1486L96.6885 79.897L97.0249 81.5805C97.1279 82.0956 97.4539 82.535 97.9156 82.7854C98.3772 83.0357 98.9235 83.067 99.4099 82.8728C99.8728 82.6876 100.226 82.3277 100.404 81.8622ZM98.4293 76.7727L91.6381 64.3222L89.2623 63.3716L91.1557 70.567L95.7405 77.4442L98.4293 76.7727ZM91.11 94.5813L88.7759 72.4134H75.4752L73.1424 94.5813H91.11ZM77.9163 62.4966L75.9942 69.8055H88.2582L86.3348 62.4966C86.2827 62.5162 86.2292 62.5292 86.177 62.5488C85.9162 62.6466 85.6515 62.7378 85.3816 62.8161C85.2786 62.8461 85.1743 62.8682 85.0713 62.8956C84.8222 62.9595 84.5731 63.0234 84.3189 63.0717C84.1911 63.0964 84.062 63.1108 83.9342 63.1303L83.8787 63.1393C83.6613 63.1742 83.4446 63.209 83.2235 63.2294C83.0553 63.2451 82.8871 63.2464 82.7176 63.2555C82.5193 63.266 82.3251 63.2855 82.1255 63.2855C81.926 63.2855 81.7317 63.266 81.5335 63.2555C81.3653 63.2464 81.1958 63.2451 81.0276 63.2294C80.7877 63.206 80.5529 63.1669 80.3169 63.1303C80.1891 63.1108 80.06 63.0964 79.9322 63.0717C79.678 63.0234 79.4289 62.9608 79.1798 62.8956C79.0768 62.8695 78.9725 62.8461 78.8695 62.8161C78.5996 62.7378 78.3362 62.6453 78.0741 62.5488C78.0219 62.5305 77.9684 62.5162 77.9163 62.4966ZM75.6056 31.9898C73.4853 31.9898 71.6936 33.1842 71.6936 34.5977C71.6936 35.6396 72.7473 36.6359 74.2547 37.0232C74.8793 37.1823 75.2939 37.7743 75.23 38.4158L74.4385 46.3337H89.8126L89.0197 38.4145C88.9558 37.773 89.3705 37.1809 89.9951 37.0219C91.5038 36.6359 92.5575 35.6396 92.5575 34.5977C92.5575 33.1842 90.7658 31.9898 88.6455 31.9898C88.5699 31.9898 88.4981 31.9989 88.4264 32.0067L88.2165 32.0263C87.674 32.0693 87.1394 31.7524 86.919 31.24C86.0936 29.3192 84.2119 28.0778 82.1255 28.0778C80.0392 28.0778 78.1575 29.3192 77.3334 31.24C77.1117 31.7524 76.5849 32.0589 76.0359 32.0263L75.826 32.0067C75.7529 31.9989 75.6812 31.9898 75.6056 31.9898ZM73.3823 48.9416C73.1293 49.7866 72.9976 50.6655 72.9976 51.5496C72.9976 55.1695 75.1218 58.2952 78.181 59.77C78.4783 59.9121 78.7795 60.0386 79.0859 60.1468L79.129 60.1625C81.0719 60.8418 83.1766 60.8418 85.1195 60.1625L85.1625 60.1468C85.469 60.0386 85.7715 59.9121 86.0675 59.77C89.1293 58.2952 91.2535 55.1695 91.2535 51.5496C91.2535 50.6655 91.1218 49.7866 90.8675 48.9416H73.3823ZM57.3497 34.5977H56.0458V45.0297H57.3497C58.0682 45.0297 58.6537 44.4442 58.6537 43.7257V35.9017C58.6537 35.1832 58.0682 34.5977 57.3497 34.5977ZM54.7418 55.4616C55.4603 55.4616 56.0458 56.0471 56.0458 56.7656V59.0319C56.0418 59.0313 56.0376 59.0309 56.0334 59.0306C56.0291 59.0303 56.0249 59.0299 56.021 59.0293C55.9897 59.0254 55.9623 59.011 55.931 59.0071C55.8593 58.998 55.7889 59.011 55.7185 59.0045C55.4916 58.9863 55.2673 58.9837 55.0404 58.9967C54.9269 59.0032 54.8148 59.0032 54.7039 59.0176C54.4353 59.0515 54.1732 59.1141 53.9137 59.1923C53.8029 59.2262 53.696 59.2614 53.5877 59.3018C53.5382 59.3201 53.4873 59.3318 53.4391 59.3514V56.7656H53.4378C53.4378 56.0471 54.0233 55.4616 54.7418 55.4616ZM53.0531 64.1553C53.1392 64.862 53.5395 65.4775 54.1511 65.8439L55.8449 66.8598L58.3173 64.3874L57.3015 62.6935C57.1307 62.4092 56.9025 62.1758 56.6404 61.9933C56.6339 61.9894 56.626 61.9867 56.6195 61.9828C56.4017 61.8342 56.1644 61.7338 55.9206 61.6686C55.8971 61.6621 55.8723 61.6568 55.8475 61.6516C55.6128 61.5982 55.3742 61.5773 55.1382 61.5969C55.1199 61.5982 55.103 61.6008 55.0847 61.6021C54.8422 61.6268 54.6048 61.6894 54.3819 61.7898C54.3636 61.799 54.3453 61.8107 54.3271 61.8198C54.1041 61.9281 53.8916 62.0676 53.709 62.2515C53.6229 62.3375 53.5538 62.4366 53.4834 62.5344C53.426 62.6192 53.37 62.7105 53.3139 62.8174C53.3087 62.8278 53.2995 62.8343 53.2943 62.8448C53.0909 63.2451 52.9957 63.695 53.0531 64.1553ZM65.6601 75.1818C66.1452 75.6069 66.8584 75.6134 67.354 75.2014L73.1437 70.3766L74.9862 63.3729L72.4943 64.3691L67.4935 70.6205C67.0436 71.1838 66.2221 71.2738 65.6614 70.8239L60.0529 66.3369L57.9522 68.4376L65.6601 75.1818ZM27.358 78.9334C27.358 79.6519 27.9435 80.2374 28.662 80.2374H52.1338C52.8523 80.2374 53.4378 79.6519 53.4378 78.9334C53.4378 78.2149 52.8523 77.6294 52.1338 77.6294H28.662C27.9435 77.6294 27.358 78.2149 27.358 78.9334ZM29.966 82.8454V85.4533C29.966 87.6101 31.7211 89.3653 33.8779 89.3653H46.9178C49.0746 89.3653 50.8298 87.6101 50.8298 85.4533V82.8454H29.966ZM44.808 94.5813L46.112 91.9733H41.7019V94.5813H44.808ZM39.0939 94.5813V91.9733H34.6838L35.9878 94.5813H39.0939ZM27.358 99.7972H100.381V97.1892H92.5575H71.6936H45.6138H35.1819H27.358V99.7972Z" fill="white"/>
<path d="M86.0375 77.6294H78.2135C77.4937 77.6294 76.9095 78.2136 76.9095 78.9334V82.8454C76.9095 85.722 79.2489 88.0613 82.1255 88.0613C85.0021 88.0613 87.3415 85.722 87.3415 82.8454V78.9334C87.3415 78.2136 86.7573 77.6294 86.0375 77.6294ZM84.7335 82.8454C84.7335 84.2837 83.5638 85.4533 82.1255 85.4533C80.6872 85.4533 79.5175 84.2837 79.5175 82.8454V80.2374H84.7335V82.8454Z" fill="white"/>
<g clip-path="url(#clip0_261_1361)">
<path fill-rule="evenodd" clip-rule="evenodd" d="M49.2533 91.5221C51.6943 90.5793 53.4378 88.223 53.4378 85.4533V82.6054C54.9517 82.0656 56.0458 80.6312 56.0458 78.9334C56.0458 76.7766 54.2906 75.0214 52.1338 75.0214H28.662C26.5052 75.0214 24.75 76.7766 24.75 78.9334C24.75 80.6312 25.844 82.0656 27.358 82.6054V85.4533C27.358 88.223 29.1014 90.5793 31.5425 91.5221C32.6554 91.952 33.3074 91.9055 34.6838 91.9733H39.0939H41.7019H46.112C47.3507 91.9162 48.0588 91.9055 49.2533 91.5221ZM27.358 78.9334C27.358 79.6519 27.9435 80.2374 28.662 80.2374H52.1338C52.8523 80.2374 53.4378 79.6519 53.4378 78.9334C53.4378 78.2149 52.8523 77.6294 52.1338 77.6294H28.662C27.9435 77.6294 27.358 78.2149 27.358 78.9334ZM29.966 82.8454V85.4533C29.966 87.6101 31.7211 89.3653 33.8779 89.3653H46.9178C49.0746 89.3653 50.8298 87.6101 50.8298 85.4533V82.8454H29.966Z" fill="white"/>
<path d="M41.7019 64.5895H39.0939V71.1095H41.7019V64.5895Z" fill="white"/>
<path d="M48.2218 67.1975H45.6138V72.4134H48.2218V67.1975Z" fill="white"/>
<path d="M35.1819 67.1975H32.5739V72.4134H35.1819V67.1975Z" fill="white"/>
<path d="M41.7019 59.3735H39.0939V61.9815H41.7019V59.3735Z" fill="white"/>
<path d="M35.1819 61.9815H32.5739V64.5895H35.1819V61.9815Z" fill="white"/>
<path d="M48.2218 61.9815H45.6138V64.5895H48.2218V61.9815Z" fill="white"/>
</g>
<defs>
<filter id="filter0_d_261_1361" x="9.75" y="11.125" width="108.5" height="108.5" filterUnits="userSpaceOnUse" color-interpolation-filters="sRGB">
<feFlood flood-opacity="0" result="BackgroundImageFix"/>
<feColorMatrix in="SourceAlpha" type="matrix" values="0 0 0 0 0 0 0 0 0 0 0 0 0 0 0 0 0 0 127 0" result="hardAlpha"/>
<feOffset dy="1.375"/>
<feGaussianBlur stdDeviation="1.375"/>
<feColorMatrix type="matrix" values="0 0 0 0 0 0 0 0 0 0 0 0 0 0 0 0 0 0 0.28 0"/>
<feBlend mode="normal" in2="BackgroundImageFix" result="effect1_dropShadow_261_1361"/>
<feBlend mode="normal" in="SourceGraphic" in2="effect1_dropShadow_261_1361" result="shape"/>
</filter>
<linearGradient id="paint0_linear_261_1361" x1="64" y1="12.5" x2="64" y2="115.5" gradientUnits="userSpaceOnUse">
<stop stop-color="#EB8E33"/>
<stop offset="1" stop-color="#D56D19"/>
</linearGradient>
<clipPath id="clip0_261_1361">
<rect width="78.375" height="78.375" fill="white" transform="translate(24.75 24.75)"/>
</clipPath>
</defs>
</svg>
